<mxfile host="app.diagrams.net" modified="2024-04-04T15:58:37.578Z" agent="Mozilla/5.0 (Windows NT 10.0; Win64; x64) AppleWebKit/537.36 (KHTML, like Gecko) Chrome/123.0.0.0 Safari/537.36 Edg/123.0.0.0" etag="axx-jbDfQEcMgxmi29as" version="24.2.2" type="github" pages="3">
  <diagram name="Flow Chart" id="4CEKlWOZ9it05dbHO6Ih">
    <mxGraphModel dx="1072" dy="439" grid="1" gridSize="10" guides="1" tooltips="1" connect="1" arrows="1" fold="1" page="1" pageScale="1" pageWidth="850" pageHeight="1100" math="0" shadow="0">
      <root>
        <mxCell id="0" />
        <mxCell id="1" parent="0" />
        <mxCell id="lVUEjLl9HdLa9QKIw33_-1" value="" style="rounded=0;html=1;jettySize=auto;orthogonalLoop=1;fontSize=11;endArrow=block;endFill=0;endSize=8;strokeWidth=1;shadow=0;labelBackgroundColor=none;edgeStyle=orthogonalEdgeStyle;" edge="1" parent="1" source="lVUEjLl9HdLa9QKIw33_-2" target="lVUEjLl9HdLa9QKIw33_-5">
          <mxGeometry relative="1" as="geometry" />
        </mxCell>
        <mxCell id="lVUEjLl9HdLa9QKIw33_-2" value="&lt;span style=&quot;color: rgb(36, 36, 36); font-family: Aptos, sans-serif; font-size: 16px; text-align: left; background-color: rgb(255, 255, 255);&quot;&gt;Zuora API&lt;/span&gt;" style="rounded=1;whiteSpace=wrap;html=1;fontSize=12;glass=0;strokeWidth=1;shadow=0;" vertex="1" parent="1">
          <mxGeometry x="140" y="30" width="120" height="40" as="geometry" />
        </mxCell>
        <mxCell id="lVUEjLl9HdLa9QKIw33_-3" value="Yes" style="rounded=0;html=1;jettySize=auto;orthogonalLoop=1;fontSize=11;endArrow=block;endFill=0;endSize=8;strokeWidth=1;shadow=0;labelBackgroundColor=none;edgeStyle=orthogonalEdgeStyle;" edge="1" parent="1" source="lVUEjLl9HdLa9QKIw33_-5" target="lVUEjLl9HdLa9QKIw33_-9">
          <mxGeometry y="20" relative="1" as="geometry">
            <mxPoint as="offset" />
          </mxGeometry>
        </mxCell>
        <mxCell id="lVUEjLl9HdLa9QKIw33_-4" value="No" style="edgeStyle=orthogonalEdgeStyle;rounded=0;html=1;jettySize=auto;orthogonalLoop=1;fontSize=11;endArrow=block;endFill=0;endSize=8;strokeWidth=1;shadow=0;labelBackgroundColor=none;entryX=1;entryY=0.25;entryDx=0;entryDy=0;" edge="1" parent="1" source="lVUEjLl9HdLa9QKIw33_-5" target="lVUEjLl9HdLa9QKIw33_-2">
          <mxGeometry y="10" relative="1" as="geometry">
            <mxPoint as="offset" />
            <mxPoint x="440" y="40" as="targetPoint" />
            <Array as="points">
              <mxPoint x="200" y="115" />
              <mxPoint x="440" y="115" />
              <mxPoint x="440" y="40" />
            </Array>
          </mxGeometry>
        </mxCell>
        <mxCell id="lVUEjLl9HdLa9QKIw33_-5" value="&lt;span style=&quot;color: rgb(36, 36, 36); font-family: Aptos, sans-serif; font-size: 16px; text-align: left; background-color: rgb(255, 255, 255);&quot;&gt;&amp;nbsp;print bill run?&lt;/span&gt;" style="rhombus;whiteSpace=wrap;html=1;shadow=0;fontFamily=Helvetica;fontSize=12;align=center;strokeWidth=1;spacing=6;spacingTop=-4;" vertex="1" parent="1">
          <mxGeometry x="130" y="160" width="140" height="90" as="geometry" />
        </mxCell>
        <mxCell id="lVUEjLl9HdLa9QKIw33_-7" value="Yes" style="rounded=0;html=1;jettySize=auto;orthogonalLoop=1;fontSize=11;endArrow=block;endFill=0;endSize=8;strokeWidth=1;shadow=0;labelBackgroundColor=none;edgeStyle=orthogonalEdgeStyle;exitX=0.5;exitY=1;exitDx=0;exitDy=0;" edge="1" parent="1" source="lVUEjLl9HdLa9QKIw33_-9" target="lVUEjLl9HdLa9QKIw33_-10">
          <mxGeometry x="0.3333" y="20" relative="1" as="geometry">
            <mxPoint as="offset" />
            <mxPoint x="200" y="420" as="sourcePoint" />
          </mxGeometry>
        </mxCell>
        <mxCell id="lVUEjLl9HdLa9QKIw33_-8" value="NO" style="edgeStyle=orthogonalEdgeStyle;rounded=0;html=1;jettySize=auto;orthogonalLoop=1;fontSize=11;endArrow=block;endFill=0;endSize=8;strokeWidth=1;shadow=0;labelBackgroundColor=none;exitX=1;exitY=0.5;exitDx=0;exitDy=0;" edge="1" parent="1" source="lVUEjLl9HdLa9QKIw33_-9">
          <mxGeometry y="10" relative="1" as="geometry">
            <mxPoint as="offset" />
            <mxPoint x="255" y="380" as="sourcePoint" />
            <mxPoint x="270" y="40" as="targetPoint" />
            <Array as="points">
              <mxPoint x="440" y="335" />
              <mxPoint x="440" y="40" />
            </Array>
          </mxGeometry>
        </mxCell>
        <mxCell id="lVUEjLl9HdLa9QKIw33_-9" value="&lt;span style=&quot;color: rgb(36, 36, 36); font-family: Aptos, sans-serif; font-size: 16px; text-align: left; background-color: rgb(255, 255, 255);&quot;&gt;concordance &amp;amp;&amp;nbsp;&lt;/span&gt;&lt;div&gt;&lt;span style=&quot;color: rgb(36, 36, 36); font-family: Aptos, sans-serif; font-size: 16px; text-align: left; background-color: rgb(255, 255, 255);&quot;&gt;Image file @ SFTP BillTRUST&lt;/span&gt;&lt;/div&gt;" style="rhombus;whiteSpace=wrap;html=1;shadow=0;fontFamily=Helvetica;fontSize=12;align=center;strokeWidth=1;spacing=6;spacingTop=-4;" vertex="1" parent="1">
          <mxGeometry x="40" y="280" width="320" height="110" as="geometry" />
        </mxCell>
        <mxCell id="lVUEjLl9HdLa9QKIw33_-10" value="BillTrust" style="rounded=1;whiteSpace=wrap;html=1;fontSize=12;glass=0;strokeWidth=1;shadow=0;" vertex="1" parent="1">
          <mxGeometry x="141" y="440" width="120" height="40" as="geometry" />
        </mxCell>
      </root>
    </mxGraphModel>
  </diagram>
  <diagram id="GAxIXFrFycXzN1PqWM6s" name="MuleSoft">
    <mxGraphModel dx="1072" dy="439" grid="1" gridSize="10" guides="1" tooltips="1" connect="1" arrows="1" fold="1" page="1" pageScale="1" pageWidth="850" pageHeight="1100" math="0" shadow="0">
      <root>
        <mxCell id="0" />
        <mxCell id="1" parent="0" />
        <mxCell id="ijEqjmGz7hRClrUnBPMz-4" value="Pool" style="swimlane;html=1;childLayout=stackLayout;resizeParent=1;resizeParentMax=0;horizontal=1;startSize=20;horizontalStack=0;whiteSpace=wrap;" vertex="1" parent="1">
          <mxGeometry x="50" y="40" width="720" height="380" as="geometry" />
        </mxCell>
        <mxCell id="ijEqjmGz7hRClrUnBPMz-5" value="Process API&amp;nbsp;" style="swimlane;html=1;startSize=20;horizontal=0;" vertex="1" parent="ijEqjmGz7hRClrUnBPMz-4">
          <mxGeometry y="20" width="720" height="120" as="geometry" />
        </mxCell>
        <mxCell id="ijEqjmGz7hRClrUnBPMz-8" value="" style="shape=image;verticalLabelPosition=bottom;verticalAlign=top;imageAspect=0;aspect=fixed;image=data:image/png,iVBORw0KGgoAAAANSUhEUgAAAH8AAABqCAYAAACVpo47AAAAAXNSR0IArs4c6QAAAAlwSFlzAAAXEgAAFxIBZ5/SUgAAHXVJREFUeAHtnQmcVPWRx6vPmek5mBPkkBtFAS8Q1MRr1Rg08YommhijoOJiiEfWjclmV+InxpiNR9ZVCa4ESci6ksuYqDGJqBFU8FYQBUfkPoa5e2Z6+tpvvZ43/bp5Pc7BzLwe5v+Znu5+7/2v+lXVv6r+R4sMpoOWAi6n9XzhwoX+nVt3nhyKhtYtXbp0l9Pa19n2XHHFFWVer/d7rrjrOM0Tj8c3jB47egH9i3S2jN5+ztvbFXS1/HXr1klhQeG/e1ye8quuumolBPxTLBZb+8gjj1R3taz+eH7BVQsqml3NF8YkdqXE5dhoPJrrdrm1KYEdO3Y4StgcB35JSUk80hrJE7cc4RHP2Eg48hWXy1V5zdxrVseisZXhWPiNZcuWbe8PYDPViTR7t2zZMoX7FwYl+AXAHi8xKYzFY14YQMRRkCd74TjwtWlxV9zvEpc7Eovk8zU/HouXwgBTYYjLYYhdc66cs47rryJdrxQXF2+47777ajVfX6Zrr73WR5smRcPR0wH+TJVyt9tdGo1EAxFXxGO0RYEn8Ry8EPMnvjnnv+PAHzFiRHTrJ1tXQqLRXre3FJUvMVfME41FDUaAKcpcbtckCPr5eDQeqqut+5jh4W2+rw6Hw2thhsr7778/1BskXrBgQVFjY+NUt7hPjUViJyHZU6m3mDblwag5fE9IeRvoHrfHAD4u8SpP3PO89q032tXdMh2pkK688spipOgICHsuInMBxtIUPosyAlohta9xiXo8nhD3WxgW6lCxGwBnFZL498KSwrfvvffe5tQMXfs2Z86cQoA7DhY8GwY8hXom0rY82pIL2Cr9CRqaUk4DaI9wTw27t2DUJ2DKZ8nzIQZsn2uojnrrSPC1wZdcconH7/fnQ7Qy3s+AAS4B0JMZT/Oi0Sgf26md7B8XwSJCnmbAaeLGuzDCn/15/icfeuihyuSDn/5p7ty5E6nzfKo5l6ePpMz8NsCT2rK9CS7hfqJQl+ygGX/zRD1/DMVDr2Cw1jc0NDStWLHCUVKvjXUs+AlKGv9dMEJuAckdd093eVxfApRzUbXDeRek0fJoao9glDCgBGGWXW6P+ykAWbp46eJ3UzOkfrv66quPYjiZQ9nnkGcogOcjxfsBrrnUilfQAbuJ9qzFJnmytbH1OV++7xMs++DTTz/dK8NPaou7/y0bwG/vHUzg9/l8+UjTWF6zIfhFgHMMY6snRRuYOczegQ6quAlAd/LxD/je6i20iar5MAOMS0bxzAUAegjlBfieKMEy0piAw3RRPm9gGPoLbXgmFAq9Q5saJ0yY0Iz1z+Dv/GSSx/kttbQQ4rr3rNsTqPPXFed4c2ahDb7A7TPxCkapJAKGjrnJHGYvQR6AgtxIUxdtj8bFE4niYVhA149apg7tMIQOKxupb6U74v5r2BV+nSGphtxNixcvDicrzI5PJlmyo7U2rZw9e3YOVrTaBsMB/UTk90wwPglGOFQNLx0a2l/pxqJNeQq2CbiRT+LKLB9w8UWGnVVxd/yt5ubmfTU1NU1OV+s23Uu5lPXgW3rjZljIycvLC/Aa1traOg2GmAFDHA2YE3huKINzAMl1qxSnpzagI7zXkW8bLPMez7zG6+1IJPIh14K7d+9uBvBWrlkGgvSSsuf7/lTox7YTOJkGWDMAoCYQCDyHv17fzea4cRf9wWAwJzc3NwcNMATAR/AahuquAMgSxusCIPQzZiuQQe7twSDchirfwjNVeo12tGzdujX0/PPPdzkef92V142NeqL/xADki4fje3xeX2VYwpVLlixp6GafDng2R4BPkKYC4n+H3n0JUIogeozXO1jbv4EZnoBgO3rYc9dpp53mmTZtmgfDzIMke3C/3ISSjWJhkjgMEa2qqorgVER64Ja5cBGPoe2X0YNzYbrhWgHfo9ggzWigSvyDv3pzvMsXLVq02ai8H//1O/gEUUZgfT+MMj4FUAoYW40EE6ib1gj4m/n8NyT0CbTBa70VvesJBsq8Xpf39KhEz0ObfJZ2l6m3wNCR9CjQL1yPwORNMMZmfI2fwNTLe1JvT/P2K/iES3MIly5hBu9iwqOJ2Lc5mra1DGmJqZsGMYMwyJsQ7+/euPf54bHh7y1curClpwTobn4FHIk+nrafCWOeDOjjaGs+/ciljYlizb6YlVj6BEPXkm8hDHC/ebuv3/sVfMblr+OjL8Znzs1oQllaiMpsZShoxh1rhFA6ufMahH45T/Lejvgiu3rT3Zo/f34BYdoxaKcZtGMWUj2DusfShgCMmYvGSpnM4XrmRJ9gFHUfq70+72W0+9nMD/feHQtpe6+S9JKRGNe8efPywq3h5yDALFR7+iP2383WqgrVYcHjbqEsjelXoUY3UdYGPPj3XF7XR/jfO/Hpq8rKypq6soBCtRFjf2FRbtFQwrMjUdWTqWMqUE0C8PEwayHfcwE8px1wbW26lNv3IHmVvujED31/oThYPPveFT2bg0gW3PlPJjk7n+MAPKnToS0tLTO8Hu9KDKGcLhNO22BpOcAo90QYHtQNawWYMEDVc30v4O2h/Dqs7mpsizqYJAR4+oqhsn0879OpYxinhFexvnNvGNdLyRcAID9l+bnmQ0PpRA632lJXATfzme9aVFxa6cupTPq8Yl7uq/dkzLqvaqQegiR+pPIsCJlDUKZ7yUJ4xk41rPwMB8k587gMxUYYB2gazYuhKTR8q7WpZa+59YWjF3fhhum7qm03xpgG670wixEPgDG4nEgwU9cl3Mxs904LaIsfOlzA7YMDfFRyDpMnX0sJwdoRp7PXLIzQnkXVQWJCJsHgds+0P5z2AYzREgcW6LQqzK8GDeJyKd9vNa/11Xu/SD7jnAdJm2BV3Qe8w10B+4BX3oUCaSeSH+hCjgP2aNIPPWBFdrIgtY6zBaBOdinbHus/8AeB73de6T/w+73rgw0YBP8g5oFB8AfBP4gpcBB3fVDyB8E/iClwEHd9UPIHwT+IKXAQdz0Z3l22eZz4c65nzVGAecZeJclvWqpzv/TiPb1aRzYVHnbnFMjybQ/2dZt1UjGRfr39LskNzJdQS68PBW62Ww2r+6TX6zG75vT3GPP6u4vH9K7E2RAhKfnxeIW0thZIa+/vMNJe7iwYadOcg/hSH9A9nbpW8Im2a8B9MOieTqSB+n1Q9Q5UZDvRr0HwO0GkgfrIIPgDFdlO9GsQ/E4QaaA+Mgj+QEW2E/1KWvudeDirHzGcGP5ZvWmNcujLdHDMd+M6//R9AKeBDb6CaWzCFSngcLfRAb9MKPDI+CK/DM1xS47HJUU+t9SHY8LebNkXisnWYES2NEZlS3NEdjax+y5KIQOUGQYm+Ao4El6U45JZ5bnyuRF5MrMiTyYVecXndokXMD2865jHG6d4JIRfcY7wRRmhvjUu79WGZM3ekLywKyRv1IQkxFYQI5N140YWa4aBBT7YKJIj8j3y5bEFctHogBxe7JcAaDdF4rKhthVAW6WyISJbmyJs7YlLA9cLfcoQLilHGxya75VxBV6ZVuqXM4YHjNeNU2LyVnVIntzSLL/bEpSdQfaBKNeoRsjiNHDAB/Riv1u+PqFI5hxWIOMAUdOLu1sArUler26V7ajxEGCH26RbeUX3ZuhpLYqjBwZQraDaIZ+ydIiYUZYjZ4/MkxPL8wwtcs3hhfLYR42yjNcOyiOTVpOVKdnyX219RLy+ORLq0ZmFfU8EA8G4nDosV/7t6GI5vjwHcEUe/7hRVmwOyrrasAQBHC3OHk7+6fOdSVBG2Yf91hLAXpgyxCcXjM6Xi8cGpMDnkQ/qw3Lfe3Wy4pOghHWYycKhILvBh+gcaS03HFEkN08dguR7ZAWgP7ihXtbXRqQxqoZcG9LJnnYG+sQzZl6+qUYoQMrHFXrlGxML5YoJBYbj8KetTfLvb9YYhqIxFHS+9H5/MrGnXJtx0c3ni9tzrESTGxP7vXUdNQDVPTTHI3fPLJV5k4dgqUflljXV8rMNDVLZGJEm7htenYLeHeC1bjMv7xQnLRS4JxSXl3e1yAsYghNhhNmjAnL6IbnycUPYsCWySQNkJ/ggMSrglYc/WyHnYdQ9v6tZ5q/eJy8wvjdgxPUYdDuma2MEVQbKBNtxCZ/d3iIR6juP4eDzMMEWrq2vYZd4lgwB2RfhQ9WPxphbenK5nIUL9+vKBpm3ap+8WxeWFkXGlFb9rOJ6oJK1POpQr29nS1T+k3F//stVGIkii04sl2sPKzyw9R6o9tuUk13gQ/ByrPD7TyiTU4blyQOM7besrZUdgKA+ert6B/QijLQL0Ap4bz1PMNxEYgTnjspLGIyGgZeor56KV3zcJJe/sFfqWqPy4xml8jXsgUSDel51b5ZwIEjTm+1Llg24evLCj6eX4XoF5JGN9XL7WzVS04oOtko7YJyG5f/YyUPl4c9UyNn46j3SANTrwx/8wTEl8gvKfHBWKS4gfoCpVai7GWZ4HjtgLkNPHe25Bwb4HO6h0xkge8CH2HMnF8plE/IZa5vktjfqpFb9N7MHxse4XHd4kSw7ZaicwZCgQZubpxZxtgoIcb9biXq/PCEgF6JFKihPLf3HTx8mZw3PTYKrwwCFr4IBvvnKPrSNS+6dWSbjMQjN8HK36u7lTNlh8AHArIocY0zdTcz96lVV8okGWCzAq3q/Hen8zlHFMiyPH2NRbUAagWG4AZ/8PYI8XXbFkOgx2BeLTqqQEZSpSQNAQ3M9ctohAfm4MSwfYGsYBh71qaH5CdHDmkhMLkf1jyLvHz9pSpzy3NYeoxCH/DPJ55Dm2DQDic2D4D84tliKQfi7b9TKh/jw1uRCrL9/9BBZcOQQKcEmsCb9evORRUberkq/h7o1cHR4kZ7blEzKWKOJ/j2AgafRv3b1znU9EerRDxtl+UcN8sVDA2gNfh3GHCKSRTjiUyqlHNGktEZAuEvGF8jpjN2/3NQoTxOqjWmrTUni/lxU8Q1HFEuBRmJs0jGEaL82oYtWOLbDObhvX6VuU4tYi9aaRgQ88t+zyuU4oortAHMjSHDpjnfqZFdzVBaijcY6VP07G3wkT2fmbjyiEMNO3ap6zlGD6ibGAD8dwi88tsSYnLGCY/2sPLGAMoYzBHRK+qlDh47bjiuR/AwMpeVrM8bjBdw5vdiYGm4vG031UV1E7llfJ2MxDudMgvH0TDCHJWeDD7jnjy5ghi1HHkGVfsTYbR3n1ZC7DbWsEvhpaWKhT65lUqZdQjvKwFh/y7QhcnRJ8mS3TI8rAXX8v/awopSyVTst/ygo72JrXAX4Y3XoUBfRQcnR4Otii2smFUgD7tMvNjWkCg+MccHYfFwq/TWUT0+quq8GhElM0HQIAur+DCz5uZOKjHj+p5eMCwoVvzWlUCZYy6a+GkKBiz5okJEw58W0NbUDnSm5d59xLviAewwqfWZFrjyzs4nYOUaeiTIClM8c/HVE09TK72zSef7rJ6uEZshBuaW5brn92FImiczKMjybdlnDzV/HPrACrNPFT2wLGqHgy8YFmCbmgoOEvwukS+ttb38FoPMOzTPAfbwSdwlmSIIfl1MOYX4dxuhK0s5+FRfsWAxAW/WPWv4WHsPxuJVdTcoqGtkbBoO1A0yFuxtj8tT2ZmPoms6qog61Tlcr7eHzzgQfnHOQbF1+tRO/fnUVawyskyXcv4jJlDSvrp0U61mt836dOl37Jw383DClqN10aH8C5joJZppPkIiqMyadPKrVqKJN0hVAJxN2tjIWPwMpf97abJSps38ZtY5Neb19yZngQ7CxBT45Yohf1la1yt4m0DZbinSWE2Q55ZDM0rn4wwa57c06Yy1eOgEV1wvG5JNfgaBcTbwVgfjtxxVTtllR4pb1/xamir/JJM6Le+yP+Ve7Yjbxfyuf6pc3q1tkL/MPCr5PH2qr1lp2f3zO3NP+aI1ZJ4J1ZLHPcLNe3RMSDkM27xiEm4wVPh7r3S7tgch/2tbM0q2gPMW7XRqC+/btKcWSY6JE+fMOH2JIbQdCL/e+Xy/v7w0zkRNs55v08meW+XE7IavZZD7uaI6hicIylXaXB5xDcue0xEpFCDdZLWfSe6q+rYjAGFOHeDNa4rradjPGYQuA/vDtWtnLIg+7dObIXJmNTSGocA3S3MhYn2kY0fzP7WyRZRsbhUPX5R+7Q8biEbtyx8KUwzSe0I4+NiDLiXQYKmXIGZGn/TI5w66EvrvmTPAB+wgA1oWWlayhTwEf2hzJitxM6SXAT6y1R91WheRuAkN2SZd/3TRliFTghv0HsYLhHUikztTdxgxiNYEmbcs25hXeqdGpnP2TBoUm0/b0sV1D0srDuijU6hHsX0LfXXEo+C45BAlpRmJqUeMp6NPi0dgDmdImllMZVIbS/JqR/A/j/1qYwC7NxPpezGqgs3Wctnug7drDSLwOP+YETpTw7cYGe4NSyxmWs38kcU+bBlJ7xSnJkeArAXXY1NUyxFxSsNd7mejXiqbYpbN9JpK869q+O96tlZBRUCrZtRxdg6daIFNSdf1fhGm1Le3l8rnGiDPb5ypLb6C2o81D2O+efRF9ctV54ENYHXvV+tZtVC3Ww6G458VazjSBo/gY8QAr6ZD+Z9hs8dhm/U2m/VNHQSLllzuZoNmmQ08apfjplf0La7vCIuL9EnxpJDX2nZLSuuSAZkEcXaOBVyWFXjeMYGki99QO0A0zdsmPBBcq51hxIQ8/qCM/eadetrHAsivpGRaN/Jb5eONHXNIyWqtIu2UMV+nXnPjdQlnnNE/nPxRksN/fqsfar81gwatQBTRTekL6ddHFz3DVOptqqEO9hSYWZrSre0vmwg5m+/ZrH/3R4JKmvUzzOiXZUMoBTQN4jewVMPAXGf6XRc74qON4pjRcx1vL48ZzcEWU1xJmBl9Sw60TaRFG3ut71c1UlkpLaJjR+Zk9Do01pDNMadtYUM1O4PR7aaX32Vdngk/3N9VHDKkfXwiY0MuaPmCuPFOawPy6bQJDddXueEelOZ07UnPoZs4H1MjTy+nYk1Xd+InaLpvUiGW4ScestHyH0S6ttVLHrLR7NsX0ySVngg9x3q9PuFKHFRHGtWJFi99kjlz349mlmUzaGCFUu5tI8UomWZazpStT0uHmRxh5O5qowJY6caKLflbn2LublY2txjo+K8JuNMVkYhN1SP32oLKUM9C37V4mwvTZdQW/higd5vYJFX5xpbTSJRthjF0MC3bpSEKoY1T61XBIT5Srxt9P363jAAb7/E+y9+4JNl/qdKxtQnDPGJGbcYXPW/vC0qR+odlm6htGAGlaiU/Wsxhlr273Me/ZVtB3FzPoyL5rgG1NSKgGa3Qn7AlMr+rCzRp1ARQQCLcbqVzF2H3puP2bX8az5+G73wPAxjbb9AqQwk2Ef299o4aFILkpMXq17R5i8UWT+ng8Z5fycEG/PMZ+AUkUoH8P8yTcwLb8lDkVqa/AFnmUNYghrcQh/t7+1LPrcV9fg24a3VtJPP1b7MDVbdfPoq5N4ysGkf+PyZVL2C6te+qtSb99g3n1X7LyZ6/JMNYH+Az55fdM/PyFqVZTP2g+/ax7/cx6+JqauHcOK3KMefnUO8a3ddgKum8whXEobnbbaqO/7bSfaLIpqk8uOUQB2fRVpUhX6nLrK+NYIWOipI8CuM6rb8gwZ6+q/5vE7VPE2loFSKtBXo0U6hp7fZmfI1pRKj8lctIeXeVzC1vBMwWGlmwMSp1uGDTz81HnDi6ESXWNwRozRGxtSz9+di74qF2Nyb+5LyTnsKhDN0C0MwCtrmXsfGBDY/slKw3VBb+eRRmXjmfdXCbLXgGye1kLsnzW0ztuYRpYVwvbJW3rr1DrKQEhjEcNH4/GPfjN5ibjnB+njPfaB+eCDzDNmPQP45sPQ3qumJi6+VENssdQ/WuZxbNLOvbffXwZR7QU8uvIIAcQ3U6o+6vYG3A9mz/sYjs6RP0IG8OI3ytDaaK6AuyD+awY1rjE/+Jh8IPPiXsO+e9c8JVAqPffMja/j8qchySP0g2SJv1ouUbh7mCLtBLfLumS7p9yeMOiE8rlsyzRAouuJxjn88z6/XA6ewPskKfE+4gcPoOh167utRaY7SIOhToO13MZS7g3aWwizT7pemMObA5ng68Ao97vW9+A2vfIv7KWPkWCIeZfsAvuXp85bKvbty5Ha/zilHJD/dq6gB3RFKPjfNYLHtK2Vy/90T9sDcrdSL16cO3gwzAjUfXfm1Ysurfw5x/UJ6bwu8N86RUewO/OBp+OGuq9MigvsgNWd76ciY9t3RunM6v3Iv1PbUPyMqQ8XCt1w3ZrWDijA58hM+Wv3tvSjqv1qWfwQG56pVr2acTJQknV7reyQET39N+1rk4qiVZa71vL6M/Plib3ZzM6qBtpaeBnWW7j0CONvt01o8w4K69dA9CD6nBUblhbzWGJ9gsrtfTXWHsXtG7p7qDKlFsYni/uDDHXAONY0p9htutfadstbLmujKmHNV2FttFnHsUD0HkFJybng29QzSUv4yb9kEUZR3E44l3Hl0q+BkrMoR71r9I1b3WVcUiCHaFXIb0pC0HtHrK7BoX0wMZXLauBllc2ynUcxPAxa/KNJpjgAvyprNC9k8MZdpHn1teqpQHGtFUbdnX18bXsAB/iakR88fsNspwzePSghNunl4oRXW9jAB1yNxK5m/vSXnmU7dHW1AwohlfQzd7G0DhPYdDVsxrn+2igm9bUyDY0gWG9W4DXzR4PnlRurAy68bUaIpTOM/KsdElOTTn9KDaIrOsn1zDNOpU4+cWsvc/F+l5FsAdsDenSN85cNOyDIIGbo9ngmcczejTbnYy9xkoqEywrFT71s8uwF1YyrPyW83c0KJQizXgbCvySk8tlbL5PFqzZJ3/ErzdmD7pV36c26IA8kD3ga3chZCOE1uXZMwi26ImY5Vjhq3c3J9boaTyeP5X0N2GSl1D1GlPfiJv1OKB12+iiTJ2M06PWWIKfBF65Da3wRTTRIiR+ZMDHnME+Wb6pSQzrg3xOTs6M7XdAMaW3SvI1q/bKfbPKjJ23I/K88t3X9yW2cHvQ7RC9AVBeYn39+rp9xnpAzdeTpKO7sZzQBJTydbPoAg6AvJnInw4B/4wB+AckXg9oStEMPam4F/Nml+QrISC+AqmHMal1X5HnZoIn3ziAaTcrd3Um0HgALQA+rPdj+TfPdtXDs6W5Aq/A8jcTzaOHLl1B5E/P5lnwcrXomr9mbZzJILaFOOdi9oGvtGtjAN21/Q/G/H3M0nxxVL58ATtAD2HQQ5F2m64ZnoDi0eOknMSfHrn6L0wa/RiPY2pJjjyG5f9t3My3WGCScmpIjyvs/QKyTu23k8RggDhLs+JE0BrlbXbQKCi6TVqPQn0cUJYTHHqb41DVWjfG+66EV5Vj2qTcj9E4FePxUvbYX0zItgI74wNCzje9uk+e3cGuXYI8+ni2SLxJw6SCytYj17UnUF7j9iUcxHzhoblyDUek6I8sNAKKTv0+jZv2KkZiJQab/sBCuypI9j55TctjyCjmLKCJWO6fGZojZzEfP50NmLqgVFcR6cFQv2MvgPry2Sbt2j0zJbufzeBrb1T06E0A6VYP4GzCwBfjDZw4LHH+vnoA+rMpumfuQ1YJ7WFY0EOeNDKr8aISVtcOYR5gjP4Gj24Ph3l0YiiXm+rZrd7TbKwvWMlPrlSRV5f4GSt2khQ0aZo178mmZzv4JskN/Zs4u09/VOkoFnaciA/+GWb1phAfKEU7aJhYFYC+zKReojKB/tyK3tcNHrqKVyOLa1hToBFE/dGGZh1CNCUpl/iehf+zd8zPROw2UBSkZlbV6ITQGly+n/sajLF6JFrhUKRbJV3X0useD8VTl3XrwsvtqHI9yFnXCeqwoYtIdcZOJ4aMNABAN0k38MA3e9YGki6k1Z9BaWBwruK1EVfQu9sl6ua0xYSMEUMZIEYeBTmCX5jykyxa1gAC3STRwAXf7KEFNB2jdYwPG3CbD9i8mytuLHltnsr6SwMf/HSIBjig6d3t6Hs357k6KnLwXrZQYBD8bEGqF9o5CH4vEDVbihwEP1uQ6oV2DoLfC0TNliL/HyOEvS6Nh8GPAAAAAElFTkSuQmCC;" vertex="1" parent="ijEqjmGz7hRClrUnBPMz-5">
          <mxGeometry x="210" y="20" width="59.91" height="50" as="geometry" />
        </mxCell>
        <mxCell id="ijEqjmGz7hRClrUnBPMz-6" value="System API" style="swimlane;html=1;startSize=20;horizontal=0;" vertex="1" parent="ijEqjmGz7hRClrUnBPMz-4">
          <mxGeometry y="140" width="720" height="120" as="geometry" />
        </mxCell>
        <mxCell id="l29tsQHMeJiDH-1f8iJc-1" value="" style="shape=image;verticalLabelPosition=bottom;verticalAlign=top;imageAspect=0;aspect=fixed;image=data:image/png,iVBORw0KGgoAAAANSUhEUgAAAH8AAABqCAYAAACVpo47AAAAAXNSR0IArs4c6QAAAAlwSFlzAAAXEgAAFxIBZ5/SUgAAHXVJREFUeAHtnQmcVPWRx6vPmek5mBPkkBtFAS8Q1MRr1Rg08YommhijoOJiiEfWjclmV+InxpiNR9ZVCa4ESci6ksuYqDGJqBFU8FYQBUfkPoa5e2Z6+tpvvZ43/bp5Pc7BzLwe5v+Znu5+7/2v+lXVv6r+R4sMpoOWAi6n9XzhwoX+nVt3nhyKhtYtXbp0l9Pa19n2XHHFFWVer/d7rrjrOM0Tj8c3jB47egH9i3S2jN5+ztvbFXS1/HXr1klhQeG/e1ye8quuumolBPxTLBZb+8gjj1R3taz+eH7BVQsqml3NF8YkdqXE5dhoPJrrdrm1KYEdO3Y4StgcB35JSUk80hrJE7cc4RHP2Eg48hWXy1V5zdxrVseisZXhWPiNZcuWbe8PYDPViTR7t2zZMoX7FwYl+AXAHi8xKYzFY14YQMRRkCd74TjwtWlxV9zvEpc7Eovk8zU/HouXwgBTYYjLYYhdc66cs47rryJdrxQXF2+47777ajVfX6Zrr73WR5smRcPR0wH+TJVyt9tdGo1EAxFXxGO0RYEn8Ry8EPMnvjnnv+PAHzFiRHTrJ1tXQqLRXre3FJUvMVfME41FDUaAKcpcbtckCPr5eDQeqqut+5jh4W2+rw6Hw2thhsr7778/1BskXrBgQVFjY+NUt7hPjUViJyHZU6m3mDblwag5fE9IeRvoHrfHAD4u8SpP3PO89q032tXdMh2pkK688spipOgICHsuInMBxtIUPosyAlohta9xiXo8nhD3WxgW6lCxGwBnFZL498KSwrfvvffe5tQMXfs2Z86cQoA7DhY8GwY8hXom0rY82pIL2Cr9CRqaUk4DaI9wTw27t2DUJ2DKZ8nzIQZsn2uojnrrSPC1wZdcconH7/fnQ7Qy3s+AAS4B0JMZT/Oi0Sgf26md7B8XwSJCnmbAaeLGuzDCn/15/icfeuihyuSDn/5p7ty5E6nzfKo5l6ePpMz8NsCT2rK9CS7hfqJQl+ygGX/zRD1/DMVDr2Cw1jc0NDStWLHCUVKvjXUs+AlKGv9dMEJuAckdd093eVxfApRzUbXDeRek0fJoao9glDCgBGGWXW6P+ykAWbp46eJ3UzOkfrv66quPYjiZQ9nnkGcogOcjxfsBrrnUilfQAbuJ9qzFJnmytbH1OV++7xMs++DTTz/dK8NPaou7/y0bwG/vHUzg9/l8+UjTWF6zIfhFgHMMY6snRRuYOczegQ6quAlAd/LxD/je6i20iar5MAOMS0bxzAUAegjlBfieKMEy0piAw3RRPm9gGPoLbXgmFAq9Q5saJ0yY0Iz1z+Dv/GSSx/kttbQQ4rr3rNsTqPPXFed4c2ahDb7A7TPxCkapJAKGjrnJHGYvQR6AgtxIUxdtj8bFE4niYVhA149apg7tMIQOKxupb6U74v5r2BV+nSGphtxNixcvDicrzI5PJlmyo7U2rZw9e3YOVrTaBsMB/UTk90wwPglGOFQNLx0a2l/pxqJNeQq2CbiRT+LKLB9w8UWGnVVxd/yt5ubmfTU1NU1OV+s23Uu5lPXgW3rjZljIycvLC/Aa1traOg2GmAFDHA2YE3huKINzAMl1qxSnpzagI7zXkW8bLPMez7zG6+1IJPIh14K7d+9uBvBWrlkGgvSSsuf7/lTox7YTOJkGWDMAoCYQCDyHv17fzea4cRf9wWAwJzc3NwcNMATAR/AahuquAMgSxusCIPQzZiuQQe7twSDchirfwjNVeo12tGzdujX0/PPPdzkef92V142NeqL/xADki4fje3xeX2VYwpVLlixp6GafDng2R4BPkKYC4n+H3n0JUIogeozXO1jbv4EZnoBgO3rYc9dpp53mmTZtmgfDzIMke3C/3ISSjWJhkjgMEa2qqorgVER64Ja5cBGPoe2X0YNzYbrhWgHfo9ggzWigSvyDv3pzvMsXLVq02ai8H//1O/gEUUZgfT+MMj4FUAoYW40EE6ib1gj4m/n8NyT0CbTBa70VvesJBsq8Xpf39KhEz0ObfJZ2l6m3wNCR9CjQL1yPwORNMMZmfI2fwNTLe1JvT/P2K/iES3MIly5hBu9iwqOJ2Lc5mra1DGmJqZsGMYMwyJsQ7+/euPf54bHh7y1curClpwTobn4FHIk+nrafCWOeDOjjaGs+/ciljYlizb6YlVj6BEPXkm8hDHC/ebuv3/sVfMblr+OjL8Znzs1oQllaiMpsZShoxh1rhFA6ufMahH45T/Lejvgiu3rT3Zo/f34BYdoxaKcZtGMWUj2DusfShgCMmYvGSpnM4XrmRJ9gFHUfq70+72W0+9nMD/feHQtpe6+S9JKRGNe8efPywq3h5yDALFR7+iP2383WqgrVYcHjbqEsjelXoUY3UdYGPPj3XF7XR/jfO/Hpq8rKypq6soBCtRFjf2FRbtFQwrMjUdWTqWMqUE0C8PEwayHfcwE8px1wbW26lNv3IHmVvujED31/oThYPPveFT2bg0gW3PlPJjk7n+MAPKnToS0tLTO8Hu9KDKGcLhNO22BpOcAo90QYHtQNawWYMEDVc30v4O2h/Dqs7mpsizqYJAR4+oqhsn0879OpYxinhFexvnNvGNdLyRcAID9l+bnmQ0PpRA632lJXATfzme9aVFxa6cupTPq8Yl7uq/dkzLqvaqQegiR+pPIsCJlDUKZ7yUJ4xk41rPwMB8k587gMxUYYB2gazYuhKTR8q7WpZa+59YWjF3fhhum7qm03xpgG670wixEPgDG4nEgwU9cl3Mxs904LaIsfOlzA7YMDfFRyDpMnX0sJwdoRp7PXLIzQnkXVQWJCJsHgds+0P5z2AYzREgcW6LQqzK8GDeJyKd9vNa/11Xu/SD7jnAdJm2BV3Qe8w10B+4BX3oUCaSeSH+hCjgP2aNIPPWBFdrIgtY6zBaBOdinbHus/8AeB73de6T/w+73rgw0YBP8g5oFB8AfBP4gpcBB3fVDyB8E/iClwEHd9UPIHwT+IKXAQdz0Z3l22eZz4c65nzVGAecZeJclvWqpzv/TiPb1aRzYVHnbnFMjybQ/2dZt1UjGRfr39LskNzJdQS68PBW62Ww2r+6TX6zG75vT3GPP6u4vH9K7E2RAhKfnxeIW0thZIa+/vMNJe7iwYadOcg/hSH9A9nbpW8Im2a8B9MOieTqSB+n1Q9Q5UZDvRr0HwO0GkgfrIIPgDFdlO9GsQ/E4QaaA+Mgj+QEW2E/1KWvudeDirHzGcGP5ZvWmNcujLdHDMd+M6//R9AKeBDb6CaWzCFSngcLfRAb9MKPDI+CK/DM1xS47HJUU+t9SHY8LebNkXisnWYES2NEZlS3NEdjax+y5KIQOUGQYm+Ao4El6U45JZ5bnyuRF5MrMiTyYVecXndokXMD2865jHG6d4JIRfcY7wRRmhvjUu79WGZM3ekLywKyRv1IQkxFYQI5N140YWa4aBBT7YKJIj8j3y5bEFctHogBxe7JcAaDdF4rKhthVAW6WyISJbmyJs7YlLA9cLfcoQLilHGxya75VxBV6ZVuqXM4YHjNeNU2LyVnVIntzSLL/bEpSdQfaBKNeoRsjiNHDAB/Riv1u+PqFI5hxWIOMAUdOLu1sArUler26V7ajxEGCH26RbeUX3ZuhpLYqjBwZQraDaIZ+ydIiYUZYjZ4/MkxPL8wwtcs3hhfLYR42yjNcOyiOTVpOVKdnyX219RLy+ORLq0ZmFfU8EA8G4nDosV/7t6GI5vjwHcEUe/7hRVmwOyrrasAQBHC3OHk7+6fOdSVBG2Yf91hLAXpgyxCcXjM6Xi8cGpMDnkQ/qw3Lfe3Wy4pOghHWYycKhILvBh+gcaS03HFEkN08dguR7ZAWgP7ihXtbXRqQxqoZcG9LJnnYG+sQzZl6+qUYoQMrHFXrlGxML5YoJBYbj8KetTfLvb9YYhqIxFHS+9H5/MrGnXJtx0c3ni9tzrESTGxP7vXUdNQDVPTTHI3fPLJV5k4dgqUflljXV8rMNDVLZGJEm7htenYLeHeC1bjMv7xQnLRS4JxSXl3e1yAsYghNhhNmjAnL6IbnycUPYsCWySQNkJ/ggMSrglYc/WyHnYdQ9v6tZ5q/eJy8wvjdgxPUYdDuma2MEVQbKBNtxCZ/d3iIR6juP4eDzMMEWrq2vYZd4lgwB2RfhQ9WPxphbenK5nIUL9+vKBpm3ap+8WxeWFkXGlFb9rOJ6oJK1POpQr29nS1T+k3F//stVGIkii04sl2sPKzyw9R6o9tuUk13gQ/ByrPD7TyiTU4blyQOM7besrZUdgKA+ert6B/QijLQL0Ap4bz1PMNxEYgTnjspLGIyGgZeor56KV3zcJJe/sFfqWqPy4xml8jXsgUSDel51b5ZwIEjTm+1Llg24evLCj6eX4XoF5JGN9XL7WzVS04oOtko7YJyG5f/YyUPl4c9UyNn46j3SANTrwx/8wTEl8gvKfHBWKS4gfoCpVai7GWZ4HjtgLkNPHe25Bwb4HO6h0xkge8CH2HMnF8plE/IZa5vktjfqpFb9N7MHxse4XHd4kSw7ZaicwZCgQZubpxZxtgoIcb9biXq/PCEgF6JFKihPLf3HTx8mZw3PTYKrwwCFr4IBvvnKPrSNS+6dWSbjMQjN8HK36u7lTNlh8AHArIocY0zdTcz96lVV8okGWCzAq3q/Hen8zlHFMiyPH2NRbUAagWG4AZ/8PYI8XXbFkOgx2BeLTqqQEZSpSQNAQ3M9ctohAfm4MSwfYGsYBh71qaH5CdHDmkhMLkf1jyLvHz9pSpzy3NYeoxCH/DPJ55Dm2DQDic2D4D84tliKQfi7b9TKh/jw1uRCrL9/9BBZcOQQKcEmsCb9evORRUberkq/h7o1cHR4kZ7blEzKWKOJ/j2AgafRv3b1znU9EerRDxtl+UcN8sVDA2gNfh3GHCKSRTjiUyqlHNGktEZAuEvGF8jpjN2/3NQoTxOqjWmrTUni/lxU8Q1HFEuBRmJs0jGEaL82oYtWOLbDObhvX6VuU4tYi9aaRgQ88t+zyuU4oortAHMjSHDpjnfqZFdzVBaijcY6VP07G3wkT2fmbjyiEMNO3ap6zlGD6ibGAD8dwi88tsSYnLGCY/2sPLGAMoYzBHRK+qlDh47bjiuR/AwMpeVrM8bjBdw5vdiYGm4vG031UV1E7llfJ2MxDudMgvH0TDCHJWeDD7jnjy5ghi1HHkGVfsTYbR3n1ZC7DbWsEvhpaWKhT65lUqZdQjvKwFh/y7QhcnRJ8mS3TI8rAXX8v/awopSyVTst/ygo72JrXAX4Y3XoUBfRQcnR4Otii2smFUgD7tMvNjWkCg+MccHYfFwq/TWUT0+quq8GhElM0HQIAur+DCz5uZOKjHj+p5eMCwoVvzWlUCZYy6a+GkKBiz5okJEw58W0NbUDnSm5d59xLviAewwqfWZFrjyzs4nYOUaeiTIClM8c/HVE09TK72zSef7rJ6uEZshBuaW5brn92FImiczKMjybdlnDzV/HPrACrNPFT2wLGqHgy8YFmCbmgoOEvwukS+ttb38FoPMOzTPAfbwSdwlmSIIfl1MOYX4dxuhK0s5+FRfsWAxAW/WPWv4WHsPxuJVdTcoqGtkbBoO1A0yFuxtj8tT2ZmPoms6qog61Tlcr7eHzzgQfnHOQbF1+tRO/fnUVawyskyXcv4jJlDSvrp0U61mt836dOl37Jw383DClqN10aH8C5joJZppPkIiqMyadPKrVqKJN0hVAJxN2tjIWPwMpf97abJSps38ZtY5Neb19yZngQ7CxBT45Yohf1la1yt4m0DZbinSWE2Q55ZDM0rn4wwa57c06Yy1eOgEV1wvG5JNfgaBcTbwVgfjtxxVTtllR4pb1/xamir/JJM6Le+yP+Ve7Yjbxfyuf6pc3q1tkL/MPCr5PH2qr1lp2f3zO3NP+aI1ZJ4J1ZLHPcLNe3RMSDkM27xiEm4wVPh7r3S7tgch/2tbM0q2gPMW7XRqC+/btKcWSY6JE+fMOH2JIbQdCL/e+Xy/v7w0zkRNs55v08meW+XE7IavZZD7uaI6hicIylXaXB5xDcue0xEpFCDdZLWfSe6q+rYjAGFOHeDNa4rradjPGYQuA/vDtWtnLIg+7dObIXJmNTSGocA3S3MhYn2kY0fzP7WyRZRsbhUPX5R+7Q8biEbtyx8KUwzSe0I4+NiDLiXQYKmXIGZGn/TI5w66EvrvmTPAB+wgA1oWWlayhTwEf2hzJitxM6SXAT6y1R91WheRuAkN2SZd/3TRliFTghv0HsYLhHUikztTdxgxiNYEmbcs25hXeqdGpnP2TBoUm0/b0sV1D0srDuijU6hHsX0LfXXEo+C45BAlpRmJqUeMp6NPi0dgDmdImllMZVIbS/JqR/A/j/1qYwC7NxPpezGqgs3Wctnug7drDSLwOP+YETpTw7cYGe4NSyxmWs38kcU+bBlJ7xSnJkeArAXXY1NUyxFxSsNd7mejXiqbYpbN9JpK869q+O96tlZBRUCrZtRxdg6daIFNSdf1fhGm1Le3l8rnGiDPb5ypLb6C2o81D2O+efRF9ctV54ENYHXvV+tZtVC3Ww6G458VazjSBo/gY8QAr6ZD+Z9hs8dhm/U2m/VNHQSLllzuZoNmmQ08apfjplf0La7vCIuL9EnxpJDX2nZLSuuSAZkEcXaOBVyWFXjeMYGki99QO0A0zdsmPBBcq51hxIQ8/qCM/eadetrHAsivpGRaN/Jb5eONHXNIyWqtIu2UMV+nXnPjdQlnnNE/nPxRksN/fqsfar81gwatQBTRTekL6ddHFz3DVOptqqEO9hSYWZrSre0vmwg5m+/ZrH/3R4JKmvUzzOiXZUMoBTQN4jewVMPAXGf6XRc74qON4pjRcx1vL48ZzcEWU1xJmBl9Sw60TaRFG3ut71c1UlkpLaJjR+Zk9Do01pDNMadtYUM1O4PR7aaX32Vdngk/3N9VHDKkfXwiY0MuaPmCuPFOawPy6bQJDddXueEelOZ07UnPoZs4H1MjTy+nYk1Xd+InaLpvUiGW4ScestHyH0S6ttVLHrLR7NsX0ySVngg9x3q9PuFKHFRHGtWJFi99kjlz349mlmUzaGCFUu5tI8UomWZazpStT0uHmRxh5O5qowJY6caKLflbn2LublY2txjo+K8JuNMVkYhN1SP32oLKUM9C37V4mwvTZdQW/higd5vYJFX5xpbTSJRthjF0MC3bpSEKoY1T61XBIT5Srxt9P363jAAb7/E+y9+4JNl/qdKxtQnDPGJGbcYXPW/vC0qR+odlm6htGAGlaiU/Wsxhlr273Me/ZVtB3FzPoyL5rgG1NSKgGa3Qn7AlMr+rCzRp1ARQQCLcbqVzF2H3puP2bX8az5+G73wPAxjbb9AqQwk2Ef299o4aFILkpMXq17R5i8UWT+ng8Z5fycEG/PMZ+AUkUoH8P8yTcwLb8lDkVqa/AFnmUNYghrcQh/t7+1LPrcV9fg24a3VtJPP1b7MDVbdfPoq5N4ysGkf+PyZVL2C6te+qtSb99g3n1X7LyZ6/JMNYH+Az55fdM/PyFqVZTP2g+/ax7/cx6+JqauHcOK3KMefnUO8a3ddgKum8whXEobnbbaqO/7bSfaLIpqk8uOUQB2fRVpUhX6nLrK+NYIWOipI8CuM6rb8gwZ6+q/5vE7VPE2loFSKtBXo0U6hp7fZmfI1pRKj8lctIeXeVzC1vBMwWGlmwMSp1uGDTz81HnDi6ESXWNwRozRGxtSz9+di74qF2Nyb+5LyTnsKhDN0C0MwCtrmXsfGBDY/slKw3VBb+eRRmXjmfdXCbLXgGye1kLsnzW0ztuYRpYVwvbJW3rr1DrKQEhjEcNH4/GPfjN5ibjnB+njPfaB+eCDzDNmPQP45sPQ3qumJi6+VENssdQ/WuZxbNLOvbffXwZR7QU8uvIIAcQ3U6o+6vYG3A9mz/sYjs6RP0IG8OI3ytDaaK6AuyD+awY1rjE/+Jh8IPPiXsO+e9c8JVAqPffMja/j8qchySP0g2SJv1ouUbh7mCLtBLfLumS7p9yeMOiE8rlsyzRAouuJxjn88z6/XA6ewPskKfE+4gcPoOh167utRaY7SIOhToO13MZS7g3aWwizT7pemMObA5ng68Ao97vW9+A2vfIv7KWPkWCIeZfsAvuXp85bKvbty5Ha/zilHJD/dq6gB3RFKPjfNYLHtK2Vy/90T9sDcrdSL16cO3gwzAjUfXfm1Ysurfw5x/UJ6bwu8N86RUewO/OBp+OGuq9MigvsgNWd76ciY9t3RunM6v3Iv1PbUPyMqQ8XCt1w3ZrWDijA58hM+Wv3tvSjqv1qWfwQG56pVr2acTJQknV7reyQET39N+1rk4qiVZa71vL6M/Plib3ZzM6qBtpaeBnWW7j0CONvt01o8w4K69dA9CD6nBUblhbzWGJ9gsrtfTXWHsXtG7p7qDKlFsYni/uDDHXAONY0p9htutfadstbLmujKmHNV2FttFnHsUD0HkFJybng29QzSUv4yb9kEUZR3E44l3Hl0q+BkrMoR71r9I1b3WVcUiCHaFXIb0pC0HtHrK7BoX0wMZXLauBllc2ynUcxPAxa/KNJpjgAvyprNC9k8MZdpHn1teqpQHGtFUbdnX18bXsAB/iakR88fsNspwzePSghNunl4oRXW9jAB1yNxK5m/vSXnmU7dHW1AwohlfQzd7G0DhPYdDVsxrn+2igm9bUyDY0gWG9W4DXzR4PnlRurAy68bUaIpTOM/KsdElOTTn9KDaIrOsn1zDNOpU4+cWsvc/F+l5FsAdsDenSN85cNOyDIIGbo9ngmcczejTbnYy9xkoqEywrFT71s8uwF1YyrPyW83c0KJQizXgbCvySk8tlbL5PFqzZJ3/ErzdmD7pV36c26IA8kD3ga3chZCOE1uXZMwi26ImY5Vjhq3c3J9boaTyeP5X0N2GSl1D1GlPfiJv1OKB12+iiTJ2M06PWWIKfBF65Da3wRTTRIiR+ZMDHnME+Wb6pSQzrg3xOTs6M7XdAMaW3SvI1q/bKfbPKjJ23I/K88t3X9yW2cHvQ7RC9AVBeYn39+rp9xnpAzdeTpKO7sZzQBJTydbPoAg6AvJnInw4B/4wB+AckXg9oStEMPam4F/Nml+QrISC+AqmHMal1X5HnZoIn3ziAaTcrd3Um0HgALQA+rPdj+TfPdtXDs6W5Aq/A8jcTzaOHLl1B5E/P5lnwcrXomr9mbZzJILaFOOdi9oGvtGtjAN21/Q/G/H3M0nxxVL58ATtAD2HQQ5F2m64ZnoDi0eOknMSfHrn6L0wa/RiPY2pJjjyG5f9t3My3WGCScmpIjyvs/QKyTu23k8RggDhLs+JE0BrlbXbQKCi6TVqPQn0cUJYTHHqb41DVWjfG+66EV5Vj2qTcj9E4FePxUvbYX0zItgI74wNCzje9uk+e3cGuXYI8+ni2SLxJw6SCytYj17UnUF7j9iUcxHzhoblyDUek6I8sNAKKTv0+jZv2KkZiJQab/sBCuypI9j55TctjyCjmLKCJWO6fGZojZzEfP50NmLqgVFcR6cFQv2MvgPry2Sbt2j0zJbufzeBrb1T06E0A6VYP4GzCwBfjDZw4LHH+vnoA+rMpumfuQ1YJ7WFY0EOeNDKr8aISVtcOYR5gjP4Gj24Ph3l0YiiXm+rZrd7TbKwvWMlPrlSRV5f4GSt2khQ0aZo178mmZzv4JskN/Zs4u09/VOkoFnaciA/+GWb1phAfKEU7aJhYFYC+zKReojKB/tyK3tcNHrqKVyOLa1hToBFE/dGGZh1CNCUpl/iehf+zd8zPROw2UBSkZlbV6ITQGly+n/sajLF6JFrhUKRbJV3X0useD8VTl3XrwsvtqHI9yFnXCeqwoYtIdcZOJ4aMNABAN0k38MA3e9YGki6k1Z9BaWBwruK1EVfQu9sl6ua0xYSMEUMZIEYeBTmCX5jykyxa1gAC3STRwAXf7KEFNB2jdYwPG3CbD9i8mytuLHltnsr6SwMf/HSIBjig6d3t6Hs357k6KnLwXrZQYBD8bEGqF9o5CH4vEDVbihwEP1uQ6oV2DoLfC0TNliL/HyOEvS6Nh8GPAAAAAElFTkSuQmCC;" vertex="1" parent="ijEqjmGz7hRClrUnBPMz-6">
          <mxGeometry x="100" y="30" width="59.91" height="50" as="geometry" />
        </mxCell>
        <mxCell id="ijEqjmGz7hRClrUnBPMz-16" value="" style="shape=image;verticalLabelPosition=bottom;verticalAlign=top;imageAspect=0;aspect=fixed;image=data:image/png,iVBORw0KGgoAAAANSUhEUgAAAH8AAABqCAYAAACVpo47AAAAAXNSR0IArs4c6QAAAAlwSFlzAAAXEgAAFxIBZ5/SUgAAHXVJREFUeAHtnQmcVPWRx6vPmek5mBPkkBtFAS8Q1MRr1Rg08YommhijoOJiiEfWjclmV+InxpiNR9ZVCa4ESci6ksuYqDGJqBFU8FYQBUfkPoa5e2Z6+tpvvZ43/bp5Pc7BzLwe5v+Znu5+7/2v+lXVv6r+R4sMpoOWAi6n9XzhwoX+nVt3nhyKhtYtXbp0l9Pa19n2XHHFFWVer/d7rrjrOM0Tj8c3jB47egH9i3S2jN5+ztvbFXS1/HXr1klhQeG/e1ye8quuumolBPxTLBZb+8gjj1R3taz+eH7BVQsqml3NF8YkdqXE5dhoPJrrdrm1KYEdO3Y4StgcB35JSUk80hrJE7cc4RHP2Eg48hWXy1V5zdxrVseisZXhWPiNZcuWbe8PYDPViTR7t2zZMoX7FwYl+AXAHi8xKYzFY14YQMRRkCd74TjwtWlxV9zvEpc7Eovk8zU/HouXwgBTYYjLYYhdc66cs47rryJdrxQXF2+47777ajVfX6Zrr73WR5smRcPR0wH+TJVyt9tdGo1EAxFXxGO0RYEn8Ry8EPMnvjnnv+PAHzFiRHTrJ1tXQqLRXre3FJUvMVfME41FDUaAKcpcbtckCPr5eDQeqqut+5jh4W2+rw6Hw2thhsr7778/1BskXrBgQVFjY+NUt7hPjUViJyHZU6m3mDblwag5fE9IeRvoHrfHAD4u8SpP3PO89q032tXdMh2pkK688spipOgICHsuInMBxtIUPosyAlohta9xiXo8nhD3WxgW6lCxGwBnFZL498KSwrfvvffe5tQMXfs2Z86cQoA7DhY8GwY8hXom0rY82pIL2Cr9CRqaUk4DaI9wTw27t2DUJ2DKZ8nzIQZsn2uojnrrSPC1wZdcconH7/fnQ7Qy3s+AAS4B0JMZT/Oi0Sgf26md7B8XwSJCnmbAaeLGuzDCn/15/icfeuihyuSDn/5p7ty5E6nzfKo5l6ePpMz8NsCT2rK9CS7hfqJQl+ygGX/zRD1/DMVDr2Cw1jc0NDStWLHCUVKvjXUs+AlKGv9dMEJuAckdd093eVxfApRzUbXDeRek0fJoao9glDCgBGGWXW6P+ykAWbp46eJ3UzOkfrv66quPYjiZQ9nnkGcogOcjxfsBrrnUilfQAbuJ9qzFJnmytbH1OV++7xMs++DTTz/dK8NPaou7/y0bwG/vHUzg9/l8+UjTWF6zIfhFgHMMY6snRRuYOczegQ6quAlAd/LxD/je6i20iar5MAOMS0bxzAUAegjlBfieKMEy0piAw3RRPm9gGPoLbXgmFAq9Q5saJ0yY0Iz1z+Dv/GSSx/kttbQQ4rr3rNsTqPPXFed4c2ahDb7A7TPxCkapJAKGjrnJHGYvQR6AgtxIUxdtj8bFE4niYVhA149apg7tMIQOKxupb6U74v5r2BV+nSGphtxNixcvDicrzI5PJlmyo7U2rZw9e3YOVrTaBsMB/UTk90wwPglGOFQNLx0a2l/pxqJNeQq2CbiRT+LKLB9w8UWGnVVxd/yt5ubmfTU1NU1OV+s23Uu5lPXgW3rjZljIycvLC/Aa1traOg2GmAFDHA2YE3huKINzAMl1qxSnpzagI7zXkW8bLPMez7zG6+1IJPIh14K7d+9uBvBWrlkGgvSSsuf7/lTox7YTOJkGWDMAoCYQCDyHv17fzea4cRf9wWAwJzc3NwcNMATAR/AahuquAMgSxusCIPQzZiuQQe7twSDchirfwjNVeo12tGzdujX0/PPPdzkef92V142NeqL/xADki4fje3xeX2VYwpVLlixp6GafDng2R4BPkKYC4n+H3n0JUIogeozXO1jbv4EZnoBgO3rYc9dpp53mmTZtmgfDzIMke3C/3ISSjWJhkjgMEa2qqorgVER64Ja5cBGPoe2X0YNzYbrhWgHfo9ggzWigSvyDv3pzvMsXLVq02ai8H//1O/gEUUZgfT+MMj4FUAoYW40EE6ib1gj4m/n8NyT0CbTBa70VvesJBsq8Xpf39KhEz0ObfJZ2l6m3wNCR9CjQL1yPwORNMMZmfI2fwNTLe1JvT/P2K/iES3MIly5hBu9iwqOJ2Lc5mra1DGmJqZsGMYMwyJsQ7+/euPf54bHh7y1curClpwTobn4FHIk+nrafCWOeDOjjaGs+/ciljYlizb6YlVj6BEPXkm8hDHC/ebuv3/sVfMblr+OjL8Znzs1oQllaiMpsZShoxh1rhFA6ufMahH45T/Lejvgiu3rT3Zo/f34BYdoxaKcZtGMWUj2DusfShgCMmYvGSpnM4XrmRJ9gFHUfq70+72W0+9nMD/feHQtpe6+S9JKRGNe8efPywq3h5yDALFR7+iP2383WqgrVYcHjbqEsjelXoUY3UdYGPPj3XF7XR/jfO/Hpq8rKypq6soBCtRFjf2FRbtFQwrMjUdWTqWMqUE0C8PEwayHfcwE8px1wbW26lNv3IHmVvujED31/oThYPPveFT2bg0gW3PlPJjk7n+MAPKnToS0tLTO8Hu9KDKGcLhNO22BpOcAo90QYHtQNawWYMEDVc30v4O2h/Dqs7mpsizqYJAR4+oqhsn0879OpYxinhFexvnNvGNdLyRcAID9l+bnmQ0PpRA632lJXATfzme9aVFxa6cupTPq8Yl7uq/dkzLqvaqQegiR+pPIsCJlDUKZ7yUJ4xk41rPwMB8k587gMxUYYB2gazYuhKTR8q7WpZa+59YWjF3fhhum7qm03xpgG670wixEPgDG4nEgwU9cl3Mxs904LaIsfOlzA7YMDfFRyDpMnX0sJwdoRp7PXLIzQnkXVQWJCJsHgds+0P5z2AYzREgcW6LQqzK8GDeJyKd9vNa/11Xu/SD7jnAdJm2BV3Qe8w10B+4BX3oUCaSeSH+hCjgP2aNIPPWBFdrIgtY6zBaBOdinbHus/8AeB73de6T/w+73rgw0YBP8g5oFB8AfBP4gpcBB3fVDyB8E/iClwEHd9UPIHwT+IKXAQdz0Z3l22eZz4c65nzVGAecZeJclvWqpzv/TiPb1aRzYVHnbnFMjybQ/2dZt1UjGRfr39LskNzJdQS68PBW62Ww2r+6TX6zG75vT3GPP6u4vH9K7E2RAhKfnxeIW0thZIa+/vMNJe7iwYadOcg/hSH9A9nbpW8Im2a8B9MOieTqSB+n1Q9Q5UZDvRr0HwO0GkgfrIIPgDFdlO9GsQ/E4QaaA+Mgj+QEW2E/1KWvudeDirHzGcGP5ZvWmNcujLdHDMd+M6//R9AKeBDb6CaWzCFSngcLfRAb9MKPDI+CK/DM1xS47HJUU+t9SHY8LebNkXisnWYES2NEZlS3NEdjax+y5KIQOUGQYm+Ao4El6U45JZ5bnyuRF5MrMiTyYVecXndokXMD2865jHG6d4JIRfcY7wRRmhvjUu79WGZM3ekLywKyRv1IQkxFYQI5N140YWa4aBBT7YKJIj8j3y5bEFctHogBxe7JcAaDdF4rKhthVAW6WyISJbmyJs7YlLA9cLfcoQLilHGxya75VxBV6ZVuqXM4YHjNeNU2LyVnVIntzSLL/bEpSdQfaBKNeoRsjiNHDAB/Riv1u+PqFI5hxWIOMAUdOLu1sArUler26V7ajxEGCH26RbeUX3ZuhpLYqjBwZQraDaIZ+ydIiYUZYjZ4/MkxPL8wwtcs3hhfLYR42yjNcOyiOTVpOVKdnyX219RLy+ORLq0ZmFfU8EA8G4nDosV/7t6GI5vjwHcEUe/7hRVmwOyrrasAQBHC3OHk7+6fOdSVBG2Yf91hLAXpgyxCcXjM6Xi8cGpMDnkQ/qw3Lfe3Wy4pOghHWYycKhILvBh+gcaS03HFEkN08dguR7ZAWgP7ihXtbXRqQxqoZcG9LJnnYG+sQzZl6+qUYoQMrHFXrlGxML5YoJBYbj8KetTfLvb9YYhqIxFHS+9H5/MrGnXJtx0c3ni9tzrESTGxP7vXUdNQDVPTTHI3fPLJV5k4dgqUflljXV8rMNDVLZGJEm7htenYLeHeC1bjMv7xQnLRS4JxSXl3e1yAsYghNhhNmjAnL6IbnycUPYsCWySQNkJ/ggMSrglYc/WyHnYdQ9v6tZ5q/eJy8wvjdgxPUYdDuma2MEVQbKBNtxCZ/d3iIR6juP4eDzMMEWrq2vYZd4lgwB2RfhQ9WPxphbenK5nIUL9+vKBpm3ap+8WxeWFkXGlFb9rOJ6oJK1POpQr29nS1T+k3F//stVGIkii04sl2sPKzyw9R6o9tuUk13gQ/ByrPD7TyiTU4blyQOM7besrZUdgKA+ert6B/QijLQL0Ap4bz1PMNxEYgTnjspLGIyGgZeor56KV3zcJJe/sFfqWqPy4xml8jXsgUSDel51b5ZwIEjTm+1Llg24evLCj6eX4XoF5JGN9XL7WzVS04oOtko7YJyG5f/YyUPl4c9UyNn46j3SANTrwx/8wTEl8gvKfHBWKS4gfoCpVai7GWZ4HjtgLkNPHe25Bwb4HO6h0xkge8CH2HMnF8plE/IZa5vktjfqpFb9N7MHxse4XHd4kSw7ZaicwZCgQZubpxZxtgoIcb9biXq/PCEgF6JFKihPLf3HTx8mZw3PTYKrwwCFr4IBvvnKPrSNS+6dWSbjMQjN8HK36u7lTNlh8AHArIocY0zdTcz96lVV8okGWCzAq3q/Hen8zlHFMiyPH2NRbUAagWG4AZ/8PYI8XXbFkOgx2BeLTqqQEZSpSQNAQ3M9ctohAfm4MSwfYGsYBh71qaH5CdHDmkhMLkf1jyLvHz9pSpzy3NYeoxCH/DPJ55Dm2DQDic2D4D84tliKQfi7b9TKh/jw1uRCrL9/9BBZcOQQKcEmsCb9evORRUberkq/h7o1cHR4kZ7blEzKWKOJ/j2AgafRv3b1znU9EerRDxtl+UcN8sVDA2gNfh3GHCKSRTjiUyqlHNGktEZAuEvGF8jpjN2/3NQoTxOqjWmrTUni/lxU8Q1HFEuBRmJs0jGEaL82oYtWOLbDObhvX6VuU4tYi9aaRgQ88t+zyuU4oortAHMjSHDpjnfqZFdzVBaijcY6VP07G3wkT2fmbjyiEMNO3ap6zlGD6ibGAD8dwi88tsSYnLGCY/2sPLGAMoYzBHRK+qlDh47bjiuR/AwMpeVrM8bjBdw5vdiYGm4vG031UV1E7llfJ2MxDudMgvH0TDCHJWeDD7jnjy5ghi1HHkGVfsTYbR3n1ZC7DbWsEvhpaWKhT65lUqZdQjvKwFh/y7QhcnRJ8mS3TI8rAXX8v/awopSyVTst/ygo72JrXAX4Y3XoUBfRQcnR4Otii2smFUgD7tMvNjWkCg+MccHYfFwq/TWUT0+quq8GhElM0HQIAur+DCz5uZOKjHj+p5eMCwoVvzWlUCZYy6a+GkKBiz5okJEw58W0NbUDnSm5d59xLviAewwqfWZFrjyzs4nYOUaeiTIClM8c/HVE09TK72zSef7rJ6uEZshBuaW5brn92FImiczKMjybdlnDzV/HPrACrNPFT2wLGqHgy8YFmCbmgoOEvwukS+ttb38FoPMOzTPAfbwSdwlmSIIfl1MOYX4dxuhK0s5+FRfsWAxAW/WPWv4WHsPxuJVdTcoqGtkbBoO1A0yFuxtj8tT2ZmPoms6qog61Tlcr7eHzzgQfnHOQbF1+tRO/fnUVawyskyXcv4jJlDSvrp0U61mt836dOl37Jw383DClqN10aH8C5joJZppPkIiqMyadPKrVqKJN0hVAJxN2tjIWPwMpf97abJSps38ZtY5Neb19yZngQ7CxBT45Yohf1la1yt4m0DZbinSWE2Q55ZDM0rn4wwa57c06Yy1eOgEV1wvG5JNfgaBcTbwVgfjtxxVTtllR4pb1/xamir/JJM6Le+yP+Ve7Yjbxfyuf6pc3q1tkL/MPCr5PH2qr1lp2f3zO3NP+aI1ZJ4J1ZLHPcLNe3RMSDkM27xiEm4wVPh7r3S7tgch/2tbM0q2gPMW7XRqC+/btKcWSY6JE+fMOH2JIbQdCL/e+Xy/v7w0zkRNs55v08meW+XE7IavZZD7uaI6hicIylXaXB5xDcue0xEpFCDdZLWfSe6q+rYjAGFOHeDNa4rradjPGYQuA/vDtWtnLIg+7dObIXJmNTSGocA3S3MhYn2kY0fzP7WyRZRsbhUPX5R+7Q8biEbtyx8KUwzSe0I4+NiDLiXQYKmXIGZGn/TI5w66EvrvmTPAB+wgA1oWWlayhTwEf2hzJitxM6SXAT6y1R91WheRuAkN2SZd/3TRliFTghv0HsYLhHUikztTdxgxiNYEmbcs25hXeqdGpnP2TBoUm0/b0sV1D0srDuijU6hHsX0LfXXEo+C45BAlpRmJqUeMp6NPi0dgDmdImllMZVIbS/JqR/A/j/1qYwC7NxPpezGqgs3Wctnug7drDSLwOP+YETpTw7cYGe4NSyxmWs38kcU+bBlJ7xSnJkeArAXXY1NUyxFxSsNd7mejXiqbYpbN9JpK869q+O96tlZBRUCrZtRxdg6daIFNSdf1fhGm1Le3l8rnGiDPb5ypLb6C2o81D2O+efRF9ctV54ENYHXvV+tZtVC3Ww6G458VazjSBo/gY8QAr6ZD+Z9hs8dhm/U2m/VNHQSLllzuZoNmmQ08apfjplf0La7vCIuL9EnxpJDX2nZLSuuSAZkEcXaOBVyWFXjeMYGki99QO0A0zdsmPBBcq51hxIQ8/qCM/eadetrHAsivpGRaN/Jb5eONHXNIyWqtIu2UMV+nXnPjdQlnnNE/nPxRksN/fqsfar81gwatQBTRTekL6ddHFz3DVOptqqEO9hSYWZrSre0vmwg5m+/ZrH/3R4JKmvUzzOiXZUMoBTQN4jewVMPAXGf6XRc74qON4pjRcx1vL48ZzcEWU1xJmBl9Sw60TaRFG3ut71c1UlkpLaJjR+Zk9Do01pDNMadtYUM1O4PR7aaX32Vdngk/3N9VHDKkfXwiY0MuaPmCuPFOawPy6bQJDddXueEelOZ07UnPoZs4H1MjTy+nYk1Xd+InaLpvUiGW4ScestHyH0S6ttVLHrLR7NsX0ySVngg9x3q9PuFKHFRHGtWJFi99kjlz349mlmUzaGCFUu5tI8UomWZazpStT0uHmRxh5O5qowJY6caKLflbn2LublY2txjo+K8JuNMVkYhN1SP32oLKUM9C37V4mwvTZdQW/higd5vYJFX5xpbTSJRthjF0MC3bpSEKoY1T61XBIT5Srxt9P363jAAb7/E+y9+4JNl/qdKxtQnDPGJGbcYXPW/vC0qR+odlm6htGAGlaiU/Wsxhlr273Me/ZVtB3FzPoyL5rgG1NSKgGa3Qn7AlMr+rCzRp1ARQQCLcbqVzF2H3puP2bX8az5+G73wPAxjbb9AqQwk2Ef299o4aFILkpMXq17R5i8UWT+ng8Z5fycEG/PMZ+AUkUoH8P8yTcwLb8lDkVqa/AFnmUNYghrcQh/t7+1LPrcV9fg24a3VtJPP1b7MDVbdfPoq5N4ysGkf+PyZVL2C6te+qtSb99g3n1X7LyZ6/JMNYH+Az55fdM/PyFqVZTP2g+/ax7/cx6+JqauHcOK3KMefnUO8a3ddgKum8whXEobnbbaqO/7bSfaLIpqk8uOUQB2fRVpUhX6nLrK+NYIWOipI8CuM6rb8gwZ6+q/5vE7VPE2loFSKtBXo0U6hp7fZmfI1pRKj8lctIeXeVzC1vBMwWGlmwMSp1uGDTz81HnDi6ESXWNwRozRGxtSz9+di74qF2Nyb+5LyTnsKhDN0C0MwCtrmXsfGBDY/slKw3VBb+eRRmXjmfdXCbLXgGye1kLsnzW0ztuYRpYVwvbJW3rr1DrKQEhjEcNH4/GPfjN5ibjnB+njPfaB+eCDzDNmPQP45sPQ3qumJi6+VENssdQ/WuZxbNLOvbffXwZR7QU8uvIIAcQ3U6o+6vYG3A9mz/sYjs6RP0IG8OI3ytDaaK6AuyD+awY1rjE/+Jh8IPPiXsO+e9c8JVAqPffMja/j8qchySP0g2SJv1ouUbh7mCLtBLfLumS7p9yeMOiE8rlsyzRAouuJxjn88z6/XA6ewPskKfE+4gcPoOh167utRaY7SIOhToO13MZS7g3aWwizT7pemMObA5ng68Ao97vW9+A2vfIv7KWPkWCIeZfsAvuXp85bKvbty5Ha/zilHJD/dq6gB3RFKPjfNYLHtK2Vy/90T9sDcrdSL16cO3gwzAjUfXfm1Ysurfw5x/UJ6bwu8N86RUewO/OBp+OGuq9MigvsgNWd76ciY9t3RunM6v3Iv1PbUPyMqQ8XCt1w3ZrWDijA58hM+Wv3tvSjqv1qWfwQG56pVr2acTJQknV7reyQET39N+1rk4qiVZa71vL6M/Plib3ZzM6qBtpaeBnWW7j0CONvt01o8w4K69dA9CD6nBUblhbzWGJ9gsrtfTXWHsXtG7p7qDKlFsYni/uDDHXAONY0p9htutfadstbLmujKmHNV2FttFnHsUD0HkFJybng29QzSUv4yb9kEUZR3E44l3Hl0q+BkrMoR71r9I1b3WVcUiCHaFXIb0pC0HtHrK7BoX0wMZXLauBllc2ynUcxPAxa/KNJpjgAvyprNC9k8MZdpHn1teqpQHGtFUbdnX18bXsAB/iakR88fsNspwzePSghNunl4oRXW9jAB1yNxK5m/vSXnmU7dHW1AwohlfQzd7G0DhPYdDVsxrn+2igm9bUyDY0gWG9W4DXzR4PnlRurAy68bUaIpTOM/KsdElOTTn9KDaIrOsn1zDNOpU4+cWsvc/F+l5FsAdsDenSN85cNOyDIIGbo9ngmcczejTbnYy9xkoqEywrFT71s8uwF1YyrPyW83c0KJQizXgbCvySk8tlbL5PFqzZJ3/ErzdmD7pV36c26IA8kD3ga3chZCOE1uXZMwi26ImY5Vjhq3c3J9boaTyeP5X0N2GSl1D1GlPfiJv1OKB12+iiTJ2M06PWWIKfBF65Da3wRTTRIiR+ZMDHnME+Wb6pSQzrg3xOTs6M7XdAMaW3SvI1q/bKfbPKjJ23I/K88t3X9yW2cHvQ7RC9AVBeYn39+rp9xnpAzdeTpKO7sZzQBJTydbPoAg6AvJnInw4B/4wB+AckXg9oStEMPam4F/Nml+QrISC+AqmHMal1X5HnZoIn3ziAaTcrd3Um0HgALQA+rPdj+TfPdtXDs6W5Aq/A8jcTzaOHLl1B5E/P5lnwcrXomr9mbZzJILaFOOdi9oGvtGtjAN21/Q/G/H3M0nxxVL58ATtAD2HQQ5F2m64ZnoDi0eOknMSfHrn6L0wa/RiPY2pJjjyG5f9t3My3WGCScmpIjyvs/QKyTu23k8RggDhLs+JE0BrlbXbQKCi6TVqPQn0cUJYTHHqb41DVWjfG+66EV5Vj2qTcj9E4FePxUvbYX0zItgI74wNCzje9uk+e3cGuXYI8+ni2SLxJw6SCytYj17UnUF7j9iUcxHzhoblyDUek6I8sNAKKTv0+jZv2KkZiJQab/sBCuypI9j55TctjyCjmLKCJWO6fGZojZzEfP50NmLqgVFcR6cFQv2MvgPry2Sbt2j0zJbufzeBrb1T06E0A6VYP4GzCwBfjDZw4LHH+vnoA+rMpumfuQ1YJ7WFY0EOeNDKr8aISVtcOYR5gjP4Gj24Ph3l0YiiXm+rZrd7TbKwvWMlPrlSRV5f4GSt2khQ0aZo178mmZzv4JskN/Zs4u09/VOkoFnaciA/+GWb1phAfKEU7aJhYFYC+zKReojKB/tyK3tcNHrqKVyOLa1hToBFE/dGGZh1CNCUpl/iehf+zd8zPROw2UBSkZlbV6ITQGly+n/sajLF6JFrhUKRbJV3X0useD8VTl3XrwsvtqHI9yFnXCeqwoYtIdcZOJ4aMNABAN0k38MA3e9YGki6k1Z9BaWBwruK1EVfQu9sl6ua0xYSMEUMZIEYeBTmCX5jykyxa1gAC3STRwAXf7KEFNB2jdYwPG3CbD9i8mytuLHltnsr6SwMf/HSIBjig6d3t6Hs357k6KnLwXrZQYBD8bEGqF9o5CH4vEDVbihwEP1uQ6oV2DoLfC0TNliL/HyOEvS6Nh8GPAAAAAElFTkSuQmCC;" vertex="1" parent="ijEqjmGz7hRClrUnBPMz-6">
          <mxGeometry x="420" y="30" width="59.91" height="50" as="geometry" />
        </mxCell>
        <mxCell id="ijEqjmGz7hRClrUnBPMz-7" value="QW Core&amp;nbsp;" style="swimlane;html=1;startSize=20;horizontal=0;" vertex="1" parent="ijEqjmGz7hRClrUnBPMz-4">
          <mxGeometry y="260" width="720" height="120" as="geometry" />
        </mxCell>
        <mxCell id="ijEqjmGz7hRClrUnBPMz-13" style="edgeStyle=orthogonalEdgeStyle;rounded=0;orthogonalLoop=1;jettySize=auto;html=1;" edge="1" parent="ijEqjmGz7hRClrUnBPMz-7" source="ijEqjmGz7hRClrUnBPMz-10">
          <mxGeometry relative="1" as="geometry">
            <mxPoint x="470" y="70" as="targetPoint" />
          </mxGeometry>
        </mxCell>
        <mxCell id="ijEqjmGz7hRClrUnBPMz-11" value="ZUORA" style="shape=image;verticalLabelPosition=bottom;labelBackgroundColor=default;verticalAlign=top;aspect=fixed;imageAspect=0;image=data:image/svg+xml,PHN2ZyB4bWxuczp4bGluaz0iaHR0cDovL3d3dy53My5vcmcvMTk5OS94bGluayIgeG1sbnM9Imh0dHA6Ly93d3cudzMub3JnLzIwMDAvc3ZnIiB4bWw6c3BhY2U9InByZXNlcnZlIiBzdHlsZT0iZW5hYmxlLWJhY2tncm91bmQ6bmV3IDAgMCAzODAuODUgNzguMjsiIHZpZXdCb3g9IjAgMCAzODAuODUgNzguMiIgeT0iMHB4IiB4PSIwcHgiIGlkPSJMYXllcl8xIiB2ZXJzaW9uPSIxLjEiPiYjeGE7PHN0eWxlIHR5cGU9InRleHQvY3NzIj4mI3hhOwkuc3Qwe2ZpbGw6IzAwRDJCOTt9JiN4YTs8L3N0eWxlPiYjeGE7PHBhdGggZD0iTTM2NC45OCwxMi4yOEgzNDEuOGwtMTYuMDYsNTIuOThoMTUuM2wzLjUyLTEyLjY2aDE3LjAxdjAuMDlsMy42MSwxMi42NmgxNS42OEwzNjQuOTgsMTIuMjhMMzY0Ljk4LDEyLjI4eiBNMzQ3LjEyLDQzLjk4JiMxMDsmIzk7bDUuOTktMjEuMzhsNS45OSwyMS4zOEgzNDcuMTJ6Ii8+JiN4YTs8cGF0aCBkPSJNMTQ5LjQ3LDEyLjM4aC00Ny42MXYxMy4wM2gyMi4wNUw5OS43Nyw2NS4zNWg0OS45OVY1Mi4zMmgtMjIuNTJMMTQ5LjQ3LDEyLjM4eiIvPiYjeGE7PHBhdGggZD0iTTMxNS45NSw0My40MWMyLjM4LTEuMzEsNC4zNy0zLjE5LDUuNy01LjYzYzEuNDItMi43MiwyLjE4LTUuNzIsMi4wOS04LjgxYy0wLjA5LTMuMDktMC45NS02LTIuNDctOC43MiYjMTA7JiM5O2MtMS43MS0yLjYzLTQuMTgtNC42OS03LjAzLTZjLTMuMDQtMS40MS02LjY1LTIuMTYtMTAuNzQtMi4xNmgtMzAuMTJ2NTMuMjZoMTUuM1Y0Mi4xOWwxNS4zOSwyMy4zNWgxNy43N2wtMTMuODctMjAuMDdsMC44Ni0wLjA5JiMxMDsmIzk7QzMxMS4zLDQ1LjI5LDMxMy43Nyw0NC42MywzMTUuOTUsNDMuNDFMMzE1Ljk1LDQzLjQxeiBNMzA2LjE2LDM1LjYzYy0xLjI0LDEuMjItMi44NSwxLjk3LTQuNjYsMS45N2gtMTIuODNWMjQuNTdoMTIuODMmIzEwOyYjOTtjMS43MSwwLDMuNDIsMC42Niw0LjY2LDEuODhjMS4yNCwxLjIyLDEuOSwyLjkxLDEuOSw0LjU5UzMwNy40LDM0LjQxLDMwNi4xNiwzNS42M3oiLz4mI3hhOzxwYXRoIGQ9Ik0yMzguNDEsMTAuNjljLTE2LjQ0LDAtMjkuMzYsMTIuMzgtMjkuMzYsMjguMTNjMCwxNS43NSwxMi45MiwyOC4xMywyOS4zNiwyOC4xM2MxNi40NCwwLDI5LjI3LTEyLjM4LDI5LjI3LTI4LjEzJiMxMDsmIzk7QzI2Ny43NywyMy4wNywyNTQuODUsMTAuNjksMjM4LjQxLDEwLjY5eiBNMjQ4LjY3LDQ5LjA0Yy0yLjc2LDIuNTMtNi40Niw0LjAzLTEwLjI2LDQuMDNjLTIuODUsMC01LjYxLTAuODQtNy45OC0yLjM0JiMxMDsmIzk7Yy0yLjM4LTEuNTktNC4xOC0zLjc1LTUuMzItNi4zOGMtMS4xNC0yLjYzLTEuNDItNS40NC0wLjg2LTguMTZjMC41Ny0yLjcyLDEuOS01LjI1LDMuOS03LjMxYzItMS45Nyw0LjU2LTMuMzgsNy40MS0zLjg0JiMxMDsmIzk7YzIuNzYtMC41Niw1LjctMC4yOCw4LjM2LDAuODRjMi42NiwxLjAzLDQuODUsMi45MSw2LjQ2LDUuMjVjMS42MiwyLjM0LDIuNDcsNS4wNiwyLjQ3LDcuODgmIzEwOyYjOTtDMjUyLjg1LDQyLjc2LDI1MS4zMyw0Ni4zMiwyNDguNjcsNDkuMDRMMjQ4LjY3LDQ5LjA0eiIvPiYjeGE7PHBhdGggZD0iTTE4OC4wNCw0NS4xYzAsMi4xNi0wLjg2LDQuMzEtMi40Nyw1LjgxYy0xLjYyLDEuNTktMy43MSwyLjQ0LTUuODksMi40NGMtMi4xOCwwLTQuMzctMC44NC01Ljg5LTIuNDQmIzEwOyYjOTtjLTEuNTItMS41OS0yLjQ3LTMuNjYtMi40Ny01LjgxVjEyLjM4aC0xNS4zOVY0My42YzAsNi4xOSwyLjQ3LDEyLjEsNi45NCwxNi41YzQuNDcsNC40MSwxMC40NSw2Ljg1LDE2LjgyLDYuODUmIzEwOyYjOTtjNi4yNywwLDEyLjM1LTIuNDQsMTYuODItNi44NWM0LjQ2LTQuNDEsNi45NC0xMC4zMSw2Ljk0LTE2LjVWMTIuMzhoLTE1LjM5VjQ1LjFMMTg4LjA0LDQ1LjF6Ii8+JiN4YTs8cGF0aCBkPSJNMzc2Ljg0LDEzLjY2aDAuMDNsMC44OCwzLjE0aDAuODhsMC44Ni0zLjE0aDAuMDN2My4xNGgxLjE5di00LjQ4aC0xLjY3bC0wLjc3LDNoLTAuMDRsLTAuNzctM2gtMS43NHY0LjQ4aDEuMTJWMTMuNjZ6Ii8+JiN4YTs8cGF0aCBkPSJNMzcyLjUsMTYuOGgxLjIxdi0zLjQ1aDEuNTN2LTEuMDNIMzcxdjEuMDNoMS41VjE2Ljh6Ii8+JiN4YTs8cGF0aCBkPSJNNjUuOTQsNzguMkgxOC42MWMtMi40NywwLTQuNTYtMS41LTUuNDItMy43NWMtMC44Ni0yLjI1LTAuMS00Ljc4LDEuODEtNi4yOGwxMC41NS04LjUzSDUuNzgmIzEwOyYjOTtjLTIuNDcsMC00LjU2LTEuNS01LjQyLTMuNzVjLTAuODYtMi4yNS0wLjE5LTQuNjksMS43MS02LjI4bDIwLjQzLTE2Ljc4YzEuNzEtMS40MSw0LjE4LTEuMTMsNS42MSwwLjQ3JiMxMDsmIzk7YzEuNDMsMS42OSwxLjE0LDQuMTMtMC40OCw1LjUzTDExLjg3LDUxLjg1aDIzLjQ3bDMxLjkzLTI1LjY5SDEzLjI5Yy0zLjUyLDAtNi44NC0xLjQxLTkuNDEtMy44NGMtMi40Ny0yLjQ0LTMuOC01LjcyLTMuOC05LjE5JiMxMDsmIzk7czEuMzMtNi43NSwzLjktOS4yOEM2LjQ1LDEuNDEsOS43OCwwLDEzLjI5LDBoNDUuOTljMi40NywwLDQuNTYsMS41LDUuNDIsMy43NWMwLjg2LDIuMjUsMC4xLDQuNjktMS44MSw2LjI4bC0xMC4yNiw4LjM1aDIwLjcyJiMxMDsmIzk7YzIuNDcsMCw0LjU2LDEuNSw1LjQyLDMuNzVjMC44NSwyLjI1LDAuMSw0Ljc4LTEuOCw2LjI4TDQ3Ljc5LDUxLjg1aDE4LjE1YzMuNTIsMCw2Ljg0LDEuNDEsOS4zMSwzLjg0YzIuNDcsMi40NCwzLjksNS43MiwzLjksOS4yOCYjMTA7JiM5O3YwLjE5YzAsMy40Ny0xLjMzLDYuNzUtMy45LDkuMjhDNzIuNzgsNzYuODksNjkuNDUsNzguMiw2NS45NCw3OC4yTDY1Ljk0LDc4LjJ6IE0yNC43OSw3MC40Mmg0MS4xNWMxLjQzLDAsMi43Ni0wLjU2LDMuOC0xLjUmIzEwOyYjOTtjMS4wNC0xLjAzLDEuNTItMi4zNCwxLjUyLTMuNzV2LTAuMTljMC0xLjQxLTAuNTctMi43Mi0xLjUyLTMuNzVjLTEuMDUtMS4wMy0yLjM4LTEuNS0zLjgtMS41SDM4LjA5TDI0Ljc5LDcwLjQyTDI0Ljc5LDcwLjQyeiYjMTA7JiM5OyBNMTMuMjksNy43OGMtMS40MywwLTIuNzYsMC41Ni0zLjgsMS41Yy0xLjA1LDEuMDMtMS41MiwyLjM0LTEuNTIsMy43NWMwLDEuNDEsMC41NywyLjcyLDEuNTIsMy43NWMxLjA1LDEuMDMsMi4zOCwxLjUsMy44LDEuNSYjMTA7JiM5O2gyNi44OUw1My4yLDcuNzhIMTMuMjl6IiBjbGFzcz0ic3QwIi8+JiN4YTs8L3N2Zz4=;" vertex="1" parent="ijEqjmGz7hRClrUnBPMz-7">
          <mxGeometry x="60" y="30" width="244.23" height="50" as="geometry" />
        </mxCell>
        <mxCell id="ijEqjmGz7hRClrUnBPMz-12" value="" style="shape=image;verticalLabelPosition=bottom;labelBackgroundColor=default;verticalAlign=top;aspect=fixed;imageAspect=0;image=data:image/svg+xml,PHN2ZyB4bWxucz0iaHR0cDovL3d3dy53My5vcmcvMjAwMC9zdmciIGZpbGw9Im5vbmUiIHZpZXdCb3g9IjAgMCAxODAgMzciIGhlaWdodD0iMzciIHdpZHRoPSIxODAiPiYjeGE7PGcgY2xpcC1wYXRoPSJ1cmwoI2NsaXAwXzM2NzFfMjE0NikiPiYjeGE7PHBhdGggZmlsbD0iIzAzMjMyNSIgZD0iTTcxLjI3NTUgNy44MTgyQzcxLjI3MjMgOC42ODk4OCA3MC45MjUxIDkuNTI0NjggNzAuMzEwMSAxMC4xMzk0QzY5LjY5NTEgMTAuNzU0IDY4Ljg2MjUgMTEuMDk4NCA2Ny45OTUxIDExLjA5NjhDNjcuMTI3NyAxMS4wOTUyIDY2LjI5NjMgMTAuNzQ3OCA2NS42ODM1IDEwLjEzMDlDNjUuMDcwNyA5LjUxMzk2IDY0LjcyNjYgOC42Nzc4OSA2NC43MjY2IDcuODA2MjFDNjQuNzI2NiA2LjkzNDUzIDY1LjA3MDcgNi4wOTg0NyA2NS42ODM1IDUuNDgxNTRDNjYuMjk2MyA0Ljg2NDYxIDY3LjEyNzcgNC41MTcyMiA2Ny45OTUxIDQuNTE1NjNDNjguODYyNSA0LjUxNDA0IDY5LjY5NTEgNC44NTgzOCA3MC4zMTAxIDUuNDczMDdDNzAuOTI1MSA2LjA4Nzc1IDcxLjI3MjMgNi45MjI1NSA3MS4yNzU1IDcuNzk0MjJWNy44MTgyWk03MS4xODQgMzUuNDE4SDY0Ljc5NTJWMTIuOTAwNUg3MS4xODRWMzUuNDE4WiIvPiYjeGE7PHBhdGggZmlsbD0iIzAzMjMyNSIgZD0iTTgxLjM2NTQgMzUuNDE4MUg3NC45NzY2VjUuMjMzMkw4MS4zNjU0IDAuODM2NDI2VjM1LjQxODFaIi8+JiN4YTs8cGF0aCBmaWxsPSIjMDMyMzI1IiBkPSJNOTEuMzgyIDM1LjQxODFIODQuOTkyMlY1LjIzMzJMOTEuMzgyIDAuODM2NDI2VjM1LjQxODFaIi8+JiN4YTs8cGF0aCBmaWxsPSIjMDMyMzI1IiBkPSJNMTAzLjc2MSAzNS40MThIOTcuMzczMVYxOC4yOTg2SDkzLjYwOTRWMTIuOTAyNUg5Ny4zNzMxVjkuNjg1ODlMMTAzLjc2MSA1LjI3NjEyVjEyLjkwMDVIMTA3LjY5MlYxOC4yOTY2SDEwMy43NjZMMTAzLjc2MSAzNS40MThaIi8+JiN4YTs8cGF0aCBmaWxsPSIjMDMyMzI1IiBkPSJNMTc2LjA3MyAzNS40MThIMTY5LjY4NlYxOC4yOTg2SDE2NS45MjJWMTIuOTAyNUgxNjkuNjg2VjkuNjg1ODlMMTc2LjA3MyA1LjI3NjEyVjEyLjkwMDVIMTgwVjE4LjI5NjZIMTc2LjA3M1YzNS40MThaIi8+JiN4YTs8cGF0aCBmaWxsPSIjMDMyMzI1IiBkPSJNMTIzLjA3MyAxNy44ODRDMTIzLjQ2MyAxNy44ODYxIDEyMy44NTEgMTcuOTIyOSAxMjQuMjM0IDE3Ljk5MzlWMTIuNzE2OEMxMjIuMDY5IDEyLjcxNjggMTE4LjkzMyAxMi4yMDIyIDExNi40MDkgMTUuMjM5SDExNi4zMThWMTIuOTAwN0gxMDkuOTI2VjM1LjQxODJIMTE2LjMxOFYyNS4yODM2QzExNi4zMiAyNS4wMjIgMTE2LjM0IDI0Ljc2MDkgMTE2LjM3OSAyNC41MDIyQzExNi40MTggMjIuNzQwMiAxMTcuMTM4IDIxLjA2MjggMTE4LjM4OSAxOS44MjY4QzExOS42MzkgMTguNTkwOCAxMjEuMzIgMTcuODkzOCAxMjMuMDczIDE3Ljg4NFoiLz4mI3hhOzxwYXRoIGZpbGw9IiMwMzIzMjUiIGQ9Ik0xNjEuMTM3IDE4LjIyMzhDMTYwLjIyNCAxNy4zNTM0IDE1OS4wMzcgMTYuNjYzOSAxNTcuNzU2IDE2LjY2MzlDMTU2LjcwOCAxNi42NjM5IDE1NS42NiAxNy40OTAzIDE1NS42NiAxOC41OTA1QzE1NS42NiAyMC4yNDIzIDE1Ny45ODYgMjAuNzAxIDE2MC4yNjkgMjEuNzEwMkMxNjIuNTk2IDIyLjcxOTUgMTY0Ljg3OCAyNC4yNzk0IDE2NC44NzggMjguMTc3NUMxNjQuODc4IDMzLjE3MzggMTYwLjg2IDM2LjE3MTYgMTU2LjE2IDM2LjE3MTZDMTU0LjY0OSAzNi4xNjM0IDE1My4xNTggMzUuODIxNiAxNTEuNzkzIDM1LjE3MDJDMTUwLjQyOSAzNC41MTg5IDE0OS4yMjMgMzMuNTc0IDE0OC4yNjIgMzIuNDAyNEwxNTEuMTgzIDI4LjU5NjJDMTUyLjQxNSAyOS45NzIyIDE1NC4wNTggMzEuMjA5MyAxNTUuOTI4IDMxLjIwOTNDMTU3LjM0NSAzMS4yMDkzIDE1OC40ODUgMzAuMjQ0IDE1OC40ODUgMjguNzc5MUMxNTguNDg1IDI2LjgwNTUgMTU2LjI1IDI2LjM0NTggMTU0LjAxIDI1LjM4MTVDMTUxLjc3MSAyNC40MTczIDE0OS41MzYgMjMuMDgzMiAxNDkuNTM2IDE5LjQ2MTlDMTQ5LjUzNiAxNS4yNDEgMTUyLjQ1NyAxMi4xNjcyIDE1Ni42NTcgMTIuMTY3MkMxNTkuMDI4IDEyLjE2NzIgMTYyLjA0MSAxMi45MDE3IDE2My44NjYgMTQuNTA1NUwxNjEuMTM3IDE4LjIyMzhaIi8+JiN4YTs8cGF0aCBmaWxsPSIjMDMyMzI1IiBkPSJNMTQwLjQxNSAxMi45MDA2VjI3LjE5OTJDMTQwLjQxIDI3LjM2NSAxNDAuMzkxIDI3LjUzIDE0MC4zNTkgMjcuNjkyOEMxNDAuMzAxIDI4LjA3MTQgMTQwLjE4MiAyOC40MzgxIDE0MC4wMDggMjguNzc5QzEzOS45NDYgMjguOTE0NSAxMzkuODc1IDI5LjA0NiAxMzkuNzk3IDI5LjE3MjdDMTM5LjQzNCAyOS43NjQ2IDEzOC44ODkgMzAuMjIwOSAxMzguMjQ0IDMwLjQ3MThDMTM3Ljc2OSAzMC42ODUgMTM3LjI1NCAzMC43OTIxIDEzNi43MzQgMzAuNzg1NUMxMzYuMjE0IDMwLjc3OSAxMzUuNzAxIDMwLjY1OSAxMzUuMjMxIDMwLjQzMzhDMTM1LjEwOCAzMC4zNzkgMTM0Ljk4OSAzMC4zMTQ2IDEzNC44NzYgMzAuMjQwOUMxMzQuMzY1IDI5LjkyOTYgMTMzLjk0IDI5LjQ5NjYgMTMzLjYzNiAyOC45ODAzQzEzMy4zMzIgMjguNDY0IDEzMy4xNiAyNy44ODAzIDEzMy4xMzQgMjcuMjgxMUwxMzMuMTIyIDI3LjI3MDFWMTIuOTAwNkgxMjYuNzIzVjI2LjE1MzlDMTI2LjcyMyAzMi43MTMxIDEzMC4xMDQgMzYuMTUxNiAxMzYuNzY2IDM2LjE1MTZDMTQzLjQyOCAzNi4xNTE2IDE0Ni44MDkgMzIuNzEzMSAxNDYuODA5IDI2LjE1MzlWMTIuOTAwNkgxNDAuNDE1WiIvPiYjeGE7PHBhdGggZmlsbD0iIzAzMjMyNSIgZD0iTTUwLjg5OTUgMTIuNzk2NkM0OC41NzQ4IDEyLjc5OTQgNDYuMzA5MSAxMy41MzMyIDQ0LjQyMDIgMTQuODk1MVYxLjc1MDczTDM4LjAyMzQgNi4xNjM1VjM1LjQzSDQ0LjQxNDNWMzMuMzkzNUM0NS44NjI4IDM0LjQxNzcgNDcuNTMxMyAzNS4wODQzIDQ5LjI4NDIgMzUuMzM5M0M1MS4wMzcyIDM1LjU5NDIgNTIuODI1MiAzNS40MzAzIDU0LjUwMzMgMzQuODYwOEM1Ni4xODE0IDM0LjI5MTQgNTcuNzAyMyAzMy4zMzI0IDU4Ljk0MjYgMzIuMDYxN0M2MC4xODI4IDMwLjc5MSA2MS4xMDc2IDI5LjI0NDQgNjEuNjQxNyAyNy41NDc0QzYyLjE3NTkgMjUuODUwMyA2Mi4zMDQ0IDI0LjA1MDYgNjIuMDE2OSAyMi4yOTQzQzYxLjcyOTUgMjAuNTM4IDYxLjAzNCAxOC44NzQ1IDU5Ljk4NzEgMTcuNDM4OUM1OC45NDAxIDE2LjAwMzIgNTcuNTcxMSAxNC44MzU3IDU1Ljk5MTIgMTQuMDMxM0M1NC40MTEyIDEzLjIyNjggNTIuNjY0OCAxMi44MDc5IDUwLjg5MzYgMTIuODA4Nkw1MC44OTk1IDEyLjc5NjZaTTUwLjg5OTUgMjkuNTEwNEM0OS44MzczIDI5LjUxMzQgNDguNzk4IDI5LjE5OTYgNDcuOTEzMiAyOC42MDg5QzQ3LjAyODQgMjguMDE4MiA0Ni4zMzc5IDI3LjE3NyA0NS45Mjg5IDI2LjE5MThDNDUuNTIgMjUuMjA2NiA0NS40MTEgMjQuMTIxNiA0NS42MTU3IDIzLjA3NDFDNDUuODIwNSAyMi4wMjY3IDQ2LjMyOTkgMjEuMDYzOCA0Ny4wNzkzIDIwLjMwNzNDNDcuODI4OCAxOS41NTA4IDQ4Ljc4NDcgMTkuMDM0NiA0OS44MjYxIDE4LjgyNDJDNTAuODY3NSAxOC42MTM4IDUxLjk0NzYgMTguNzE4NSA1Mi45Mjk4IDE5LjEyNTFDNTMuOTEyIDE5LjUzMTYgNTQuNzUyMSAyMC4yMjE5IDU1LjM0MzkgMjEuMTA4NEM1NS45MzU3IDIxLjk5NDkgNTYuMjUyNSAyMy4wMzc5IDU2LjI1NDIgMjQuMTA1M1YyNC4xMTkzQzU2LjI1NjUgMjQuODI1OCA1Ni4xMjAyIDI1LjUyNTggNTUuODUzMiAyNi4xNzkzQzU1LjU4NjIgMjYuODMyOSA1NS4xOTM3IDI3LjQyNzIgNTQuNjk4MSAyNy45MjgyQzU0LjIwMjUgMjguNDI5MyA1My42MTM1IDI4LjgyNzQgNTIuOTY0OSAyOS4wOTk3QzUyLjMxNjIgMjkuMzcyIDUxLjYyMDUgMjkuNTEzMyA1MC45MTc0IDI5LjUxNTRMNTAuODk5NSAyOS41MTA0WiIvPiYjeGE7PHBhdGggZmlsbD0iIzM4QjI3MCIgZD0iTTE3LjU4NjIgMzUuNDE4MUgwLjUwMzkwNkw2LjY5MTg4IDI4LjA2NTVIMjEuMTg1OEMyMy41NDE1IDI4LjA2NTUgMjYuNjQyOSAyNC4yMTgzIDI3LjQ3MzIgMjEuMzcwNEMyNy40NzMyIDI5LjEzNzcgMjQuNjg4IDM1LjQxODEgMTcuNTg2MiAzNS40MTgxWiIgY2xpcC1ydWxlPSJldmVub2RkIiBmaWxsLXJ1bGU9ImV2ZW5vZGQiLz4mI3hhOzxwYXRoIGZpbGw9IiMxMTg2NUQiIGQ9Ik0yNy40NzEgMjEuMzc0NFY2LjcxNDExTDIxLjE4MzYgMTQuMTgxNlYyOC4wNjU1QzIzLjU2NTEgMjguMDY1NSAyNi42NDA3IDI0LjIxOTMgMjcuNDcxIDIxLjM3NDRaIiBjbGlwLXJ1bGU9ImV2ZW5vZGQiIGZpbGwtcnVsZT0iZXZlbm9kZCIvPiYjeGE7PHBhdGggZmlsbD0iIzM4QjI3MCIgZD0iTTkuODg3MDMgNi4xMTY0NkgyNi45NjkzTDIwLjc4MjQgMTMuNDcxMUg2LjI4ODRDMy45MzE3NCAxMy40NzExIDAuODMwMyAxNy4zMTkyIDAgMjAuMTY2MkMwIDEyLjM5OTggMi43ODQyNCA2LjExNjQ2IDkuODg3MDMgNi4xMTY0NloiIGNsaXAtcnVsZT0iZXZlbm9kZCIgZmlsbC1ydWxlPSJldmVub2RkIi8+JiN4YTs8cGF0aCBmaWxsPSIjMTE4NjVEIiBkPSJNMCAyMC4xNjMzVjM0LjgyMjVMNi4yODg0IDI3LjM1NVYxMy40NzEyQzMuOTE5ODEgMTMuNDcxMiAwLjgzMDMgMTcuMzI0NCAwIDIwLjE2MzNaIiBjbGlwLXJ1bGU9ImV2ZW5vZGQiIGZpbGwtcnVsZT0iZXZlbm9kZCIvPiYjeGE7PC9nPiYjeGE7PGRlZnM+JiN4YTs8Y2xpcFBhdGggaWQ9ImNsaXAwXzM2NzFfMjE0NiI+JiN4YTs8cmVjdCB0cmFuc2Zvcm09InRyYW5zbGF0ZSgwIDAuODM2NDI2KSIgZmlsbD0id2hpdGUiIGhlaWdodD0iMzUuMzI3MSIgd2lkdGg9IjE4MCIvPiYjeGE7PC9jbGlwUGF0aD4mI3hhOzwvZGVmcz4mI3hhOzwvc3ZnPg==;" vertex="1" parent="ijEqjmGz7hRClrUnBPMz-7">
          <mxGeometry x="480" y="48" width="194.56" height="40" as="geometry" />
        </mxCell>
        <mxCell id="ijEqjmGz7hRClrUnBPMz-14" value="" style="edgeStyle=orthogonalEdgeStyle;rounded=0;orthogonalLoop=1;jettySize=auto;html=1;" edge="1" parent="ijEqjmGz7hRClrUnBPMz-7" source="ijEqjmGz7hRClrUnBPMz-11" target="ijEqjmGz7hRClrUnBPMz-10">
          <mxGeometry relative="1" as="geometry">
            <mxPoint x="520" y="370" as="targetPoint" />
            <mxPoint x="305" y="370" as="sourcePoint" />
          </mxGeometry>
        </mxCell>
        <mxCell id="ijEqjmGz7hRClrUnBPMz-10" value="" style="sketch=0;outlineConnect=0;fontColor=#232F3E;gradientColor=none;fillColor=#01A88D;strokeColor=none;dashed=0;verticalLabelPosition=bottom;verticalAlign=top;align=center;html=1;fontSize=12;fontStyle=0;aspect=fixed;shape=mxgraph.aws4.transfer_for_sftp_resource;" vertex="1" parent="ijEqjmGz7hRClrUnBPMz-7">
          <mxGeometry x="400" y="45" width="34.1" height="35" as="geometry" />
        </mxCell>
        <mxCell id="ijEqjmGz7hRClrUnBPMz-17" style="edgeStyle=orthogonalEdgeStyle;rounded=0;orthogonalLoop=1;jettySize=auto;html=1;" edge="1" parent="ijEqjmGz7hRClrUnBPMz-4" source="ijEqjmGz7hRClrUnBPMz-8" target="l29tsQHMeJiDH-1f8iJc-1">
          <mxGeometry relative="1" as="geometry" />
        </mxCell>
        <mxCell id="ijEqjmGz7hRClrUnBPMz-18" style="edgeStyle=orthogonalEdgeStyle;rounded=0;orthogonalLoop=1;jettySize=auto;html=1;entryX=0;entryY=0.75;entryDx=0;entryDy=0;" edge="1" parent="ijEqjmGz7hRClrUnBPMz-4" source="ijEqjmGz7hRClrUnBPMz-8" target="ijEqjmGz7hRClrUnBPMz-16">
          <mxGeometry relative="1" as="geometry" />
        </mxCell>
      </root>
    </mxGraphModel>
  </diagram>
  <diagram id="q8I-sMjEmrCed4W0vrvn" name="Boomi">
    <mxGraphModel dx="1072" dy="439" grid="1" gridSize="10" guides="1" tooltips="1" connect="1" arrows="1" fold="1" page="1" pageScale="1" pageWidth="850" pageHeight="1100" math="0" shadow="0">
      <root>
        <mxCell id="0" />
        <mxCell id="1" parent="0" />
      </root>
    </mxGraphModel>
  </diagram>
</mxfile>
